<svg xmlns="http://www.w3.org/2000/svg" viewBox="0 0 500 500"><g id="freepik--background-complete--inject-5"><rect x="76.63" y="221.78" width="343.46" height="110.22" style="fill:#e0e0e0"></rect><path d="M63.6,221.78s370.13,2.53,370.13,0-27.66-41.37-27.66-41.37H94.38Z" style="fill:#e0e0e0"></path><path d="M435.27,221.71c0,.14-83.2.26-185.81.26s-185.82-.12-185.82-.26,83.18-.26,185.82-.26S435.27,221.56,435.27,221.71Z" style="fill:#ebebeb"></path><polygon points="248.58 104.05 140.99 201.65 355.72 201.65 248.58 104.05" style="fill:#ebebeb"></polygon><polygon points="161.47 201.65 161.47 332 339.63 332 339.63 201.65 173.35 201.65 161.47 201.65" style="fill:#ebebeb"></polygon><polygon points="155.8 213.07 177.12 213.07 177.12 201.65 155.65 201.65 155.8 213.07" style="fill:#f5f5f5"></polygon><polygon points="155.28 332 178.9 332 178.9 320.58 155.12 320.58 155.28 332" style="fill:#f5f5f5"></polygon><polygon points="175.82 332 157 332 159.85 213.07 173.21 213.07 175.82 332" style="fill:#f5f5f5"></polygon><polygon points="191.19 213.07 212.52 213.07 212.52 201.65 191.05 201.65 191.19 213.07" style="fill:#f5f5f5"></polygon><polygon points="190.68 332 214.3 332 214.3 320.58 190.52 320.58 190.68 332" style="fill:#f5f5f5"></polygon><polygon points="211.22 332 192.39 332 195.25 213.07 208.61 213.07 211.22 332" style="fill:#f5f5f5"></polygon><polygon points="284.74 213.07 306.07 213.07 306.07 201.65 284.6 201.65 284.74 213.07" style="fill:#f5f5f5"></polygon><polygon points="284.23 332 307.84 332 307.84 320.58 284.06 320.58 284.23 332" style="fill:#f5f5f5"></polygon><polygon points="304.77 332 285.94 332 288.8 213.07 302.16 213.07 304.77 332" style="fill:#f5f5f5"></polygon><polygon points="323.29 213.07 344.62 213.07 344.62 201.65 323.15 201.65 323.29 213.07" style="fill:#f5f5f5"></polygon><polygon points="322.78 332 346.4 332 346.4 320.58 322.62 320.58 322.78 332" style="fill:#f5f5f5"></polygon><polygon points="343.32 332 324.49 332 327.35 213.07 340.71 213.07 343.32 332" style="fill:#f5f5f5"></polygon><rect x="239.05" y="281.78" width="26.46" height="50.22" style="fill:#e0e0e0"></rect><path d="M265,269H238.58V243a13.23,13.23,0,0,1,13.23-13.22h0A13.22,13.22,0,0,1,265,243Z" style="fill:#fafafa"></path><rect x="87.99" y="240.05" width="18.48" height="28.98" style="fill:#f5f5f5"></rect><path d="M111.05,248.89c0,.14-6.19.26-13.82.26s-13.81-.12-13.81-.26,6.18-.26,13.81-.26S111.05,248.75,111.05,248.89Z" style="fill:#e0e0e0"></path><path d="M111.05,260.1c0,.15-6.19.27-13.82.27s-13.81-.12-13.81-.27,6.18-.26,13.81-.26S111.05,260,111.05,260.1Z" style="fill:#e0e0e0"></path><path d="M97.59,275.86c-.15,0-.26-8.53-.26-19.05s.11-19.06.26-19.06.26,8.53.26,19.06S97.73,275.86,97.59,275.86Z" style="fill:#e0e0e0"></path><rect x="125.07" y="240.05" width="18.48" height="28.98" style="fill:#f5f5f5"></rect><path d="M148.13,248.89c0,.14-6.19.26-13.82.26s-13.81-.12-13.81-.26,6.18-.26,13.81-.26S148.13,248.75,148.13,248.89Z" style="fill:#e0e0e0"></path><path d="M148.13,260.1c0,.15-6.19.27-13.82.27s-13.81-.12-13.81-.27,6.18-.26,13.81-.26S148.13,260,148.13,260.1Z" style="fill:#e0e0e0"></path><path d="M134.67,275.86c-.15,0-.26-8.53-.26-19.05s.11-19.06.26-19.06.26,8.53.26,19.06S134.81,275.86,134.67,275.86Z" style="fill:#e0e0e0"></path><rect x="125.07" y="283.9" width="18.48" height="28.98" style="fill:#f5f5f5"></rect><path d="M148.13,292.74c0,.14-6.19.26-13.82.26s-13.81-.12-13.81-.26,6.18-.27,13.81-.27S148.13,292.59,148.13,292.74Z" style="fill:#e0e0e0"></path><path d="M148.13,304c0,.14-6.19.26-13.82.26s-13.81-.12-13.81-.26,6.18-.26,13.81-.26S148.13,303.81,148.13,304Z" style="fill:#e0e0e0"></path><path d="M134.67,319.7c-.15,0-.26-8.53-.26-19.05s.11-19,.26-19,.26,8.53.26,19S134.81,319.7,134.67,319.7Z" style="fill:#e0e0e0"></path><rect x="88.37" y="283.46" width="18.48" height="28.98" style="fill:#f5f5f5"></rect><path d="M111.43,292.3c0,.14-6.19.26-13.82.26s-13.81-.12-13.81-.26S90,292,97.61,292,111.43,292.16,111.43,292.3Z" style="fill:#e0e0e0"></path><path d="M111.43,303.51c0,.15-6.19.26-13.82.26s-13.81-.11-13.81-.26,6.18-.26,13.81-.26S111.43,303.37,111.43,303.51Z" style="fill:#e0e0e0"></path><path d="M98,319.27c-.14,0-.26-8.54-.26-19.06s.12-19,.26-19,.26,8.53.26,19S98.11,319.27,98,319.27Z" style="fill:#e0e0e0"></path><rect x="351.91" y="240.05" width="18.48" height="28.98" style="fill:#f5f5f5"></rect><path d="M375,248.89c0,.14-6.18.26-13.81.26s-13.82-.12-13.82-.26,6.19-.26,13.82-.26S375,248.75,375,248.89Z" style="fill:#e0e0e0"></path><path d="M375,260.1c0,.15-6.18.27-13.81.27s-13.82-.12-13.82-.27,6.19-.26,13.82-.26S375,260,375,260.1Z" style="fill:#e0e0e0"></path><path d="M361.51,275.86c-.15,0-.27-8.53-.27-19.05s.12-19.06.27-19.06.26,8.53.26,19.06S361.65,275.86,361.51,275.86Z" style="fill:#e0e0e0"></path><rect x="388.99" y="240.05" width="18.48" height="28.98" style="fill:#f5f5f5"></rect><path d="M412,248.89c0,.14-6.18.26-13.81.26s-13.82-.12-13.82-.26,6.19-.26,13.82-.26S412,248.75,412,248.89Z" style="fill:#e0e0e0"></path><path d="M412,260.1c0,.15-6.18.27-13.81.27s-13.82-.12-13.82-.27,6.19-.26,13.82-.26S412,260,412,260.1Z" style="fill:#e0e0e0"></path><path d="M398.59,275.86c-.15,0-.27-8.53-.27-19.05s.12-19.06.27-19.06.26,8.53.26,19.06S398.73,275.86,398.59,275.86Z" style="fill:#e0e0e0"></path><rect x="388.99" y="283.9" width="18.48" height="28.98" style="fill:#f5f5f5"></rect><path d="M412,292.74c0,.14-6.18.26-13.81.26s-13.82-.12-13.82-.26,6.19-.27,13.82-.27S412,292.59,412,292.74Z" style="fill:#e0e0e0"></path><path d="M412,304c0,.14-6.18.26-13.81.26s-13.82-.12-13.82-.26,6.19-.26,13.82-.26S412,303.81,412,304Z" style="fill:#e0e0e0"></path><path d="M398.59,319.7c-.15,0-.27-8.53-.27-19.05s.12-19,.27-19,.26,8.53.26,19S398.73,319.7,398.59,319.7Z" style="fill:#e0e0e0"></path><rect x="352.29" y="283.46" width="18.48" height="28.98" style="fill:#f5f5f5"></rect><path d="M375.34,292.3c0,.14-6.18.26-13.81.26s-13.82-.12-13.82-.26,6.19-.26,13.82-.26S375.34,292.16,375.34,292.3Z" style="fill:#e0e0e0"></path><path d="M375.34,303.51c0,.15-6.18.26-13.81.26s-13.82-.11-13.82-.26,6.19-.26,13.82-.26S375.34,303.37,375.34,303.51Z" style="fill:#e0e0e0"></path><path d="M361.89,319.27c-.15,0-.26-8.54-.26-19.06s.11-19,.26-19,.26,8.53.26,19S362,319.27,361.89,319.27Z" style="fill:#e0e0e0"></path><path d="M272.83,243.33c0,.14-9.2.26-20.55.26s-20.56-.12-20.56-.26,9.2-.26,20.56-.26S272.83,243.18,272.83,243.33Z" style="fill:#ebebeb"></path><path d="M272.83,256.59c0,.15-9.2.26-20.55.26s-20.56-.11-20.56-.26,9.2-.26,20.56-.26S272.83,256.45,272.83,256.59Z" style="fill:#ebebeb"></path><path d="M251.81,271.65c-.14,0-.26-10-.26-22.24s.12-22.24.26-22.24.26,10,.26,22.24S252,271.65,251.81,271.65Z" style="fill:#ebebeb"></path><path d="M355.72,201.65c0,.15-48.07.26-107.36.26S141,201.8,141,201.65s48.06-.26,107.37-.26S355.72,201.51,355.72,201.65Z" style="fill:#e0e0e0"></path><path d="M248.35,120.17s.12.09.35.3l1,1,4,3.72L269,139.26l53.56,49.9.44.41h-.6l-74,0-74,0h-.6l.44-.41,53.58-49.9L243,125.14l4-3.72,1-1,.35-.3s-.11.12-.35.34l-1,1-4,3.79L227.8,139.54l-53.32,50-.16-.41,74,0,74,0-.16.41-53.3-50-15.14-14.25-4-3.79-1-1Z" style="fill:#e0e0e0"></path><path d="M467.83,277.62c0,.14-96,.26-214.39.26S39,277.76,39,277.62s96-.26,214.41-.26S467.83,277.47,467.83,277.62Z" style="fill:#e0e0e0"></path><path d="M235.93,222c4.07,2,7.59-2.46,7.59-2.46l-2.36-1.93c-1.8,2.81-6,1.73-6,1.73Z" style="fill:#e0e0e0"></path><path d="M259,159.39c-1.24-4.38-6.93-3.95-6.93-3.95l.16,3c3.29-.56,5.33,3.29,5.33,3.29Z" style="fill:#e0e0e0"></path><path d="M395.12,216c-1.24-4.38-6.93-4-6.93-4l.15,3c3.29-.57,5.34,3.29,5.34,3.29Z" style="fill:#e0e0e0"></path><path d="M116.8,173.51c-1.24-4.38-6.93-4-6.93-4l.16,3c3.29-.57,5.33,3.29,5.33,3.29Z" style="fill:#e0e0e0"></path><path d="M166.77,136c-.84-3-4.71-2.68-4.71-2.68l.11,2.07c2.23-.39,3.62,2.23,3.62,2.23Z" style="fill:#e0e0e0"></path><path d="M292.36,118.09c-.84-3-4.71-2.69-4.71-2.69l.11,2.07c2.23-.38,3.62,2.23,3.62,2.23Z" style="fill:#e0e0e0"></path><path d="M80.47,138.57c-3.07.32-3.44,4.18-3.44,4.18l2.06.25c0-2.27,2.81-3.2,2.81-3.2Z" style="fill:#e0e0e0"></path><path d="M291.49,179.29c.45-3.06-3.19-4.37-3.19-4.37l-.75,1.93c2.2.56,2.4,3.51,2.4,3.51Z" style="fill:#e0e0e0"></path><path d="M235.14,272.88c.44-3.05-3.2-4.37-3.2-4.37l-.75,1.93c2.2.56,2.4,3.52,2.4,3.52Z" style="fill:#e0e0e0"></path><path d="M433.07,200.66c.44-3-3.2-4.37-3.2-4.37l-.75,1.94c2.2.56,2.4,3.51,2.4,3.51Z" style="fill:#e0e0e0"></path><path d="M114.6,111.36c4.07,2,7.59-2.46,7.59-2.46L119.83,107c-1.8,2.82-6,1.73-6,1.73Z" style="fill:#e0e0e0"></path><path d="M336.92,135.46c4.07,2,7.59-2.46,7.59-2.46l-2.36-1.94c-1.8,2.82-6,1.73-6,1.73Z" style="fill:#e0e0e0"></path><path d="M223.87,125.28c-1.24-4.38-6.93-4-6.93-4l.16,3c3.29-.56,5.33,3.29,5.33,3.29Z" style="fill:#e0e0e0"></path><path d="M385.48,110.33c-1.24-4.37-6.93-4-6.93-4l.16,3.05c3.29-.57,5.33,3.28,5.33,3.28Z" style="fill:#e0e0e0"></path><path d="M37.81,180.92c-1-4.71-7.4-3.77-7.4-3.77l-.08,3.33c3.72-.89,5.68,3.18,5.68,3.18Z" style="fill:#e0e0e0"></path><path d="M173.69,205.71c-1.23-4.38-6.92-4-6.92-4l.15,3.05c3.29-.57,5.34,3.29,5.34,3.29Z" style="fill:#e0e0e0"></path><path d="M393.68,159.51c-1.24-4.38-6.93-4-6.93-4l.16,3c3.29-.57,5.33,3.29,5.33,3.29Z" style="fill:#e0e0e0"></path><path d="M70.61,195.05c.45-3.06-3.2-4.37-3.2-4.37l-.75,1.93c2.2.56,2.4,3.52,2.4,3.52Z" style="fill:#e0e0e0"></path><path d="M202.05,182c.44-3.06-3.2-4.37-3.2-4.37l-.75,1.93c2.2.56,2.4,3.52,2.4,3.52Z" style="fill:#e0e0e0"></path><path d="M250,74.46l-.91-1.13a1.41,1.41,0,0,1,.24-2c5.83-4.43,31.95-24.25,32.76-24.45S283.85,48,283.85,48a5.22,5.22,0,0,1,.26,1.69Z" style="fill:#ebebeb"></path><path d="M281.92,48.15l-31.85,24.2a1.36,1.36,0,0,0,.5,2.41l8.85,2.18a1.38,1.38,0,0,0,1.13-.22l24.19-17.54a1.36,1.36,0,0,0,.55-1.29l-1.19-8.84A1.36,1.36,0,0,0,281.92,48.15Z" style="fill:#e0e0e0"></path><path d="M264.17,80.07c.07.07-1-1.5-1.06-1.56a8,8,0,0,1,1.24-11.16,49.13,49.13,0,0,1,9.29-6.4,9.18,9.18,0,0,1,10.72,1.41l2,1.87Z" style="fill:#ebebeb"></path><path d="M250.79,82s.29-.14.75-.45A4.57,4.57,0,0,0,253,79.76a6.65,6.65,0,0,0,.64-3.36,33.73,33.73,0,0,0-.6-4.3,10.84,10.84,0,0,1,.06-4.44,4.74,4.74,0,0,1,2.12-3,3.51,3.51,0,0,1,2.4-.53,1.52,1.52,0,0,1,.84.33s-.31-.1-.86-.13a3.54,3.54,0,0,0-2.18.64,4.47,4.47,0,0,0-1.86,2.76,10.83,10.83,0,0,0,0,4.25,30.46,30.46,0,0,1,.56,4.36,6.72,6.72,0,0,1-.8,3.55,4.29,4.29,0,0,1-1.7,1.76C251.12,82,250.79,82,250.79,82Z" style="fill:#e0e0e0"></path><path d="M251,81.84c-1.92-.29-3.84.77-5.78.56a2.41,2.41,0,0,0,1.59.61c-.11.24-.41.3-.67.35s-.56.14-.62.4a.6.6,0,0,0,0,.37,5.44,5.44,0,0,0,1,1.78c1-.69,2-1.43,3-2.21.6-.48,1.73-1,1.47-1.82" style="fill:#e0e0e0"></path><path d="M403.27,128.24l-.91-1.13a1.4,1.4,0,0,1,.25-2c5.82-4.43,31.94-24.26,32.75-24.46s1.78,1.14,1.78,1.14a5.13,5.13,0,0,1,.26,1.68Z" style="fill:#ebebeb"></path><path d="M435.22,101.93l-31.86,24.21a1.36,1.36,0,0,0,.5,2.41l8.85,2.17a1.34,1.34,0,0,0,1.13-.22L438,113a1.35,1.35,0,0,0,.55-1.29l-1.18-8.83A1.37,1.37,0,0,0,435.22,101.93Z" style="fill:#e0e0e0"></path><path d="M418.8,133.13c.07.08-1-1.49-1.05-1.55A8,8,0,0,1,419,120.41a49.55,49.55,0,0,1,9.29-6.39A9.18,9.18,0,0,1,439,115.43l2,1.87Z" style="fill:#ebebeb"></path><path d="M404.08,135.77s.29-.14.75-.45a4.64,4.64,0,0,0,1.48-1.77,6.78,6.78,0,0,0,.65-3.36,37.44,37.44,0,0,0-.6-4.3,10.67,10.67,0,0,1,.05-4.44,4.68,4.68,0,0,1,2.13-3,3.55,3.55,0,0,1,2.39-.54,1.56,1.56,0,0,1,.84.33s-.31-.09-.86-.13a3.57,3.57,0,0,0-2.18.65,4.44,4.44,0,0,0-1.86,2.76,11,11,0,0,0,0,4.24,32.44,32.44,0,0,1,.57,4.36,6.89,6.89,0,0,1-.8,3.55,4.47,4.47,0,0,1-1.71,1.77A1.8,1.8,0,0,1,404.08,135.77Z" style="fill:#e0e0e0"></path><path d="M404.34,135.63c-1.93-.29-3.85.77-5.78.56a2.44,2.44,0,0,0,1.59.61c-.12.23-.42.29-.68.34s-.56.15-.62.4a.7.7,0,0,0,0,.38,5.38,5.38,0,0,0,1,1.78q1.55-1,3-2.22c.59-.48,1.72-1,1.47-1.81" style="fill:#e0e0e0"></path><path d="M82.67,68.73l.24-1.43a1.41,1.41,0,0,1,1.66-1.14c7.17,1.43,39.33,7.87,40,8.34s.33,2.09.33,2.09c-.1.42-1.09,1.31-1.09,1.31Z" style="fill:#ebebeb"></path><path d="M123.54,75.24,84.3,67.4a1.36,1.36,0,0,0-1.47,2l4.23,8.08a1.36,1.36,0,0,0,.91.69l29.17,6.51a1.37,1.37,0,0,0,1.33-.44l5.83-6.74A1.36,1.36,0,0,0,123.54,75.24Z" style="fill:#e0e0e0"></path><path d="M89.1,83c0,.1.45-1.74.46-1.82a8,8,0,0,1,9.19-6.47,49.91,49.91,0,0,1,10.94,2.72,9.18,9.18,0,0,1,6,9l-.08,2.73Z" style="fill:#ebebeb"></path><path d="M77.56,74.32s.3.12.84.26a4.52,4.52,0,0,0,2.3-.06,6.64,6.64,0,0,0,3-1.74,35.14,35.14,0,0,0,2.82-3.3,10.92,10.92,0,0,1,3.37-2.9,4.75,4.75,0,0,1,3.62-.36,3.5,3.5,0,0,1,2,1.44,1.55,1.55,0,0,1,.31.85s-.14-.3-.47-.73a3.55,3.55,0,0,0-1.93-1.21,4.46,4.46,0,0,0-3.3.44,10.86,10.86,0,0,0-3.18,2.8A30.05,30.05,0,0,1,84,73.13a6.84,6.84,0,0,1-3.19,1.75,4.26,4.26,0,0,1-2.45-.11A1.72,1.72,0,0,1,77.56,74.32Z" style="fill:#e0e0e0"></path><path d="M77.84,74.42c-1.06-1.64-3.13-2.37-4.25-4a2.43,2.43,0,0,0,.6,1.6.91.91,0,0,1-.71-.28.53.53,0,0,0-1,.08,5.27,5.27,0,0,0-.68,1.91c1.2.32,2.42.58,3.64.78.76.13,1.92.62,2.34-.1" style="fill:#e0e0e0"></path></g><g id="freepik--Floor--inject-5"><path d="M468.67,469.58c0,.15-94.84.26-211.79.26s-211.82-.11-211.82-.26,94.82-.26,211.82-.26S468.67,469.44,468.67,469.58Z" style="fill:#263238"></path></g><g id="freepik--Plant--inject-5"><path d="M272.21,434.17c-1.8,2.4-5.11,1.47-6.61-.08s-2.08-3.75-2.61-5.84c-1.2-4.78-2.41-9.79-1.23-14.58a8,8,0,0,1,2-3.88,4.22,4.22,0,0,1,4-1.2c1.67.5,2.66,2.19,3.36,3.79a34.54,34.54,0,0,1,2.92,15,12,12,0,0,1-1.86,6.82" style="fill:#6C63FD"></path><g style="opacity:0.2"><path d="M272.21,434.17c-1.8,2.4-5.11,1.47-6.61-.08s-2.08-3.75-2.61-5.84c-1.2-4.78-2.41-9.79-1.23-14.58a8,8,0,0,1,2-3.88,4.22,4.22,0,0,1,4-1.2c1.67.5,2.66,2.19,3.36,3.79a34.54,34.54,0,0,1,2.92,15,12,12,0,0,1-1.86,6.82"></path></g><path d="M265.35,446.39a14.89,14.89,0,0,0-9.21-1.44,7.6,7.6,0,0,0-4.63,1.89c-1.19,1.22-1.48,3.43-.21,4.55a4.39,4.39,0,0,0,2.86.83c2.44.06,5.17-.28,7.07,1.25,1.09.88,1.78,2.3,3.1,2.76a3.15,3.15,0,0,0,3.52-1.42,5.39,5.39,0,0,0,.52-4A6.07,6.07,0,0,0,265.35,446.39Z" style="fill:#6C63FD"></path><path d="M276.82,437.85a8.9,8.9,0,0,1-1.11-8.27,15.83,15.83,0,0,1,5.11-6.9,26.32,26.32,0,0,1,8.89-4.85,9.37,9.37,0,0,1,4-.53,4.13,4.13,0,0,1,3.22,2.1c.86,1.78-.09,3.88-1.1,5.58a66.67,66.67,0,0,1-6,8.53c-1.79,2.15-3.83,4.27-6.48,5.18s-5.37.7-6.69-1.16" style="fill:#6C63FD"></path><path d="M271.07,471.22a5.41,5.41,0,0,1-.11-1.12c-.06-.81-.12-1.84-.2-3.05a44.55,44.55,0,0,0-.53-4.5,33.8,33.8,0,0,0-1.45-5.32,19.27,19.27,0,0,0-2.53-4.87,10.13,10.13,0,0,0-3.3-2.94,9.45,9.45,0,0,0-2.84-1,5.79,5.79,0,0,1-1.11-.2,5.81,5.81,0,0,1,1.14,0,8.55,8.55,0,0,1,3,.88,10.11,10.11,0,0,1,3.49,3,19,19,0,0,1,2.63,5,32.49,32.49,0,0,1,1.43,5.41,38.45,38.45,0,0,1,.44,4.55c.05,1.29.05,2.34.05,3.07A4.34,4.34,0,0,1,271.07,471.22Z" style="fill:#263238"></path><path d="M270.94,468.87a2.59,2.59,0,0,1,0-.52c0-.39,0-.88.06-1.48,0-1.28.1-3.14.11-5.44,0-4.6-.13-10.95-.66-17.95s-1.34-13.3-2.12-17.83c-.18-1.14-.37-2.16-.55-3s-.31-1.67-.45-2.3-.22-1.07-.3-1.45a2,2,0,0,1-.07-.52,2.89,2.89,0,0,1,.16.5c.1.37.23.85.38,1.43s.34,1.39.54,2.28.41,1.92.61,3a170.17,170.17,0,0,1,2.26,17.86c.53,7,.66,13.38.53,18-.05,2.31-.16,4.17-.27,5.45-.05.6-.1,1.09-.14,1.48A1.59,1.59,0,0,1,270.94,468.87Z" style="fill:#263238"></path><path d="M271.33,456.61a10,10,0,0,1,.06-1.55c.09-1,.28-2.42.62-4.18a54.21,54.21,0,0,1,1.57-6.06,52.86,52.86,0,0,1,2.8-7.13,38.3,38.3,0,0,1,7.89-11.43,19.8,19.8,0,0,1,1.82-1.58c.28-.22.53-.44.78-.61l.7-.45a11.39,11.39,0,0,1,1.33-.79,47.26,47.26,0,0,0-4.4,3.67,40.56,40.56,0,0,0-7.71,11.38A60,60,0,0,0,274,445a61.82,61.82,0,0,0-1.65,6c-.38,1.73-.61,3.15-.76,4.13A11.66,11.66,0,0,1,271.33,456.61Z" style="fill:#263238"></path></g><g id="freepik--character-2--inject-5"><path d="M347.4,172a5.92,5.92,0,0,0-3.18,5.73c.13,1.28.67,2.48.9,3.75a3.59,3.59,0,0,1-1,3.52c-1.12.83-3,.71-3.54,2a1.94,1.94,0,0,0,.88,2.17,5.64,5.64,0,0,0,2.4.72,1.77,1.77,0,0,0-1.38,2.17,2.88,2.88,0,0,0,2,1.91,8.3,8.3,0,0,0,2.9.19" style="fill:#263238"></path><path d="M346.64,177.09c-2.52-3.17.11-6.41,2.45-7.85s6.55-1.25,9.27-.8c2.43.41,4.79,1.36,7.26,1.31s4.89-1,6.92.22a5.42,5.42,0,0,1,2.25,4.74,33.39,33.39,0,0,1-.85,5.42,7.85,7.85,0,0,0,.61,5.35,11.77,11.77,0,0,0,1.77,2,6.89,6.89,0,0,1,1.62,2.14,2.68,2.68,0,0,1-.13,2.58,1.71,1.71,0,0,1-2.36.45,2.9,2.9,0,0,1-.7,3.59,4.09,4.09,0,0,1-3.77.65,7,7,0,0,1-3.22-2.28" style="fill:#263238"></path><path d="M368.33,215.26,352.39,214c-.1-1.86,0-9.06,0-9.06s-6.63-1-6.72-7.66,1.07-21.85,1.07-21.85h0a23,23,0,0,1,23.15,2.91l1,.76Z" style="fill:#b76f4f"></path><path d="M347.42,185.93c.1.12.76-.38,1.67-.39s1.57.47,1.67.35-.05-.26-.34-.48a2.24,2.24,0,0,0-1.34-.42,2.21,2.21,0,0,0-1.33.46C347.47,185.67,347.37,185.88,347.42,185.93Z" style="fill:#263238"></path><path d="M357,186.41c.1.12.75-.38,1.67-.39s1.57.47,1.67.35-.05-.26-.34-.48a2.24,2.24,0,0,0-1.34-.42,2.21,2.21,0,0,0-1.33.46C357.06,186.15,357,186.36,357,186.41Z" style="fill:#263238"></path><path d="M353,193.64a4.23,4.23,0,0,0-1.48-.32c-.24,0-.43-.08-.44-.21a1.15,1.15,0,0,1,.17-.68l.72-1.85a24.74,24.74,0,0,0,1.56-4.88,25.94,25.94,0,0,0-2.05,4.69c-.23.65-.46,1.26-.68,1.87a1.47,1.47,0,0,0-.13,1,.63.63,0,0,0,.41.39,2.27,2.27,0,0,0,.41.05A4.7,4.7,0,0,0,353,193.64Z" style="fill:#263238"></path><path d="M355.92,194.64a16.91,16.91,0,0,1-4.48,1.31,2.53,2.53,0,0,0,3,1C356.41,196.22,355.92,194.64,355.92,194.64Z" style="fill:#fff"></path><path d="M352.41,204.84a15.44,15.44,0,0,0,8.65-2.46s-2.05,4.77-8.66,4.17Z" style="fill:#754330"></path><path d="M346.64,177.09s3.88,2.24,9.31,0c3.56-1.46,7.63-2,8.46-1.25s-.79,8.65,4,9.42c0,0-.05,4.42,1.7,4.42,2.72,0,2.12-12.18,2.12-12.18l-6.35-3.7-7.08-1.89-6.85.45-5.35,1.05Z" style="fill:#263238"></path><path d="M370.1,186c.11,0,4.55-1.34,4.41,3.19s-4.67,3.45-4.67,3.32S370.1,186,370.1,186Z" style="fill:#b76f4f"></path><path d="M371.28,190.79s.07.05.21.12a.81.81,0,0,0,.59,0,2,2,0,0,0,1-1.72,2.61,2.61,0,0,0-.19-1.14.91.91,0,0,0-.57-.63.41.41,0,0,0-.48.21c-.06.12,0,.21-.06.22s-.09-.08-.05-.27a.47.47,0,0,1,.19-.27.59.59,0,0,1,.44-.11,1.14,1.14,0,0,1,.8.73,2.66,2.66,0,0,1,.23,1.28,2.06,2.06,0,0,1-1.21,1.92.86.86,0,0,1-.72-.15C371.28,190.9,371.26,190.79,371.28,190.79Z" style="fill:#754330"></path><path d="M351.14,182.39c-.14.25-1,0-2.05,0s-1.93.1-2-.16.78-.9,2.09-.84S351.29,182.17,351.14,182.39Z" style="fill:#263238"></path><path d="M361.31,183c-.14.25-1,0-2.05,0s-1.93.1-2.05-.16.78-.9,2.09-.84S361.46,182.73,361.31,183Z" style="fill:#263238"></path><path d="M337.72,160.53l.07-1.53a1.48,1.48,0,0,1,1.59-1.41c7.73.57,42.36,3.15,43.14,3.55.94.49.62,2.15.62,2.15a5.44,5.44,0,0,1-1,1.53Z" style="fill:#6C63FD"></path><path d="M381.52,162.05l-42.25-3.13a1.45,1.45,0,0,0-1.3,2.27l5.5,7.93a1.45,1.45,0,0,0,1,.62l31.5,3a1.44,1.44,0,0,0,1.34-.64l5.25-7.84A1.45,1.45,0,0,0,381.52,162.05Z" style="fill:#6C63FD"></path><g style="opacity:0.5"><path d="M381.52,162.05l-42.25-3.13a1.45,1.45,0,0,0-1.3,2.27l5.5,7.93a1.45,1.45,0,0,0,1,.62l31.5,3a1.44,1.44,0,0,0,1.34-.64l5.25-7.84A1.45,1.45,0,0,0,381.52,162.05Z"></path></g><path d="M346.05,172.39c0,.1.25-1.89.25-2a8.47,8.47,0,0,1,8.81-8A52.56,52.56,0,0,1,367,163.86a9.69,9.69,0,0,1,7.51,8.64l.27,2.87Z" style="fill:#6C63FD"></path><path d="M333.08,167.07s.33.1.91.17a4.74,4.74,0,0,0,2.42-.35,7.09,7.09,0,0,0,2.88-2.22,38,38,0,0,0,2.54-3.83,11.47,11.47,0,0,1,3.15-3.49,5.07,5.07,0,0,1,3.75-.85,3.7,3.7,0,0,1,2.27,1.25,1.68,1.68,0,0,1,.44.85c-.05,0-.18-.3-.59-.71a3.77,3.77,0,0,0-2.18-1,4.75,4.75,0,0,0-3.42.89,11.46,11.46,0,0,0-3,3.37,35.55,35.55,0,0,1-2.61,3.86,7.2,7.2,0,0,1-3.12,2.25,4.64,4.64,0,0,1-2.58.21A1.72,1.72,0,0,1,333.08,167.07Z" style="fill:#263238"></path><path d="M333.39,167.14c-1.33-1.58-3.6-2.08-5-3.61a2.55,2.55,0,0,0,.83,1.6.86.86,0,0,1-.77-.2c-.24-.14-.55-.27-.78-.12a.76.76,0,0,0-.23.33,5.68,5.68,0,0,0-.47,2.11c1.31.17,2.62.29,3.94.34.81,0,2.09.39,2.44-.41" style="fill:#263238"></path><path d="M374.63,175.38a8.83,8.83,0,0,0-.62,3.74,3,3,0,0,0,2.31,2.69,7.91,7.91,0,0,0,1.68-.11,1.9,1.9,0,0,1,1.57.43,1.86,1.86,0,0,1,0,2.13,4.2,4.2,0,0,1-6.32,1.3" style="fill:#263238"></path><path d="M344.88,466.43l-.05-8.85,16.57-.2.22,12.95-1,.07c-4.57.31-23.26,1.26-26.33.37C330.84,469.77,344.88,466.43,344.88,466.43Z" style="fill:#6C63FD"></path><g style="opacity:0.4"><path d="M355.6,470.27a5.74,5.74,0,0,1,2.08-3.56,5.52,5.52,0,0,1,3.86-1.25l.06,4.63Z"></path></g><g style="opacity:0.4"><path d="M338,468.31s-4.92,1.48-4.29,2.29,19.55.56,27.89-.27l0-.37-22.07.47S339,468.34,338,468.31Z"></path></g><path d="M361.84,469.94l-.28,0-.82.06-3,.16c-2.54.13-6.06.25-9.94.31s-7.41,0-10,0l-3-.08-.82,0-.28,0h1.1l3,0c2.54,0,6.06,0,9.94,0s7.4-.16,10-.25l3-.1.82,0Z" style="fill:#263238"></path><path d="M339.52,470.68a4.38,4.38,0,0,0-1.62-2.57,2.23,2.23,0,0,1,1.21,1A2.26,2.26,0,0,1,339.52,470.68Z" style="fill:#263238"></path><path d="M344.38,468.14c-.05,0-.28-.25-.53-.63s-.41-.71-.36-.74.28.25.53.63S344.43,468.11,344.38,468.14Z" style="fill:#263238"></path><path d="M345.71,467.41s-.3-.13-.59-.38-.49-.49-.45-.53.3.13.59.38S345.75,467.37,345.71,467.41Z" style="fill:#263238"></path><path d="M346.54,465.84a2,2,0,0,1-.86.12,2.08,2.08,0,0,1-.87-.08c0-.06.38-.11.86-.12A1.9,1.9,0,0,1,346.54,465.84Z" style="fill:#263238"></path><path d="M346.82,464.73a1.61,1.61,0,0,1-1,.29,1.72,1.72,0,0,1-1-.12,6.44,6.44,0,0,1,1-.08A6.36,6.36,0,0,1,346.82,464.73Z" style="fill:#263238"></path><path d="M343.8,466.7a3.15,3.15,0,0,1-1.07,0,6.59,6.59,0,0,1-1.13-.24,2.91,2.91,0,0,1-.66-.26.56.56,0,0,1-.26-.33.4.4,0,0,1,.15-.42,2,2,0,0,1,2.43.54,1.74,1.74,0,0,1,.35.7c.05.19,0,.29,0,.29a2.7,2.7,0,0,0-.49-.9,1.9,1.9,0,0,0-.92-.58,1.65,1.65,0,0,0-1.27.1c-.17.13-.1.33.09.44a4.47,4.47,0,0,0,.6.25,9.16,9.16,0,0,0,1.1.27C343.39,466.67,343.8,466.67,343.8,466.7Z" style="fill:#263238"></path><path d="M343.52,466.76a1.13,1.13,0,0,1-.13-.74,1.72,1.72,0,0,1,.28-.78,1.1,1.1,0,0,1,.88-.56.43.43,0,0,1,.34.49,1.15,1.15,0,0,1-.18.48,3.24,3.24,0,0,1-.49.65,1.49,1.49,0,0,1-.61.44s.21-.2.5-.54a3.39,3.39,0,0,0,.44-.64c.14-.23.24-.63,0-.68s-.54.25-.7.46a1.8,1.8,0,0,0-.29.7A5.79,5.79,0,0,0,343.52,466.76Z" style="fill:#263238"></path><path d="M361.45,465.41s-.48,0-1.22.06a5.29,5.29,0,0,0-2.66,1.14,5.23,5.23,0,0,0-1.64,2.38c-.25.71-.26,1.19-.3,1.18a1.07,1.07,0,0,1,0-.33,5.42,5.42,0,0,1,.17-.9,5,5,0,0,1,4.42-3.61,4.37,4.37,0,0,1,.91,0A1.12,1.12,0,0,1,361.45,465.41Z" style="fill:#263238"></path><path d="M359.64,458.54a27.73,27.73,0,0,1,.19,3.4,30.48,30.48,0,0,1,0,3.41,28.2,28.2,0,0,1-.19-3.41A30.27,30.27,0,0,1,359.64,458.54Z" style="fill:#263238"></path><path d="M353.5,468.68a9.62,9.62,0,0,1-2.42.27,9.77,9.77,0,0,1-2.43-.16c0-.06,1.09,0,2.43,0S353.49,468.62,353.5,468.68Z" style="fill:#263238"></path><path d="M356.75,468.63s-.09.23-.2.48-.16.47-.22.47-.09-.26,0-.55S356.71,468.59,356.75,468.63Z" style="fill:#263238"></path><path d="M358,467.09s-.06.22-.23.39-.34.29-.38.25.06-.21.23-.39S357.91,467.06,358,467.09Z" style="fill:#263238"></path><path d="M359.69,466.38c0,.05-.23.05-.47.14s-.42.22-.46.19.09-.27.39-.38S359.71,466.32,359.69,466.38Z" style="fill:#263238"></path><path d="M360.94,466c0,.05-.08.14-.21.19s-.27.06-.29,0,.07-.14.21-.19S360.92,466,360.94,466Z" style="fill:#263238"></path><path d="M412.09,465.94l-.77-8.82-16.53,1.34,1,12.91,1,0c4.58-.12,23.28-.91,26.25-2.08C426.38,468,412.09,465.94,412.09,465.94Z" style="fill:#6C63FD"></path><g style="opacity:0.4"><path d="M401.76,470.75a5.73,5.73,0,0,0-2.39-3.35,5.62,5.62,0,0,0-4-.89l.37,4.62Z"></path></g><g style="opacity:0.4"><path d="M419.09,467.17s5,1,4.49,1.88-19.42,2.38-27.8,2.32V471l22-1.58S418.13,467.29,419.09,467.17Z"></path></g><path d="M395.52,471h1.11l3-.11c2.54-.12,6.05-.32,9.93-.62s7.37-.67,9.9-1l3-.36.81-.12a1.75,1.75,0,0,0,.28-.05h-.29l-.81.08-3,.3c-2.54.25-6,.59-9.91.9s-7.38.53-9.92.67l-3,.18-.82.05Z" style="fill:#263238"></path><path d="M417.82,469.68a6.72,6.72,0,0,1,.44-1.48,6.31,6.31,0,0,1,.93-1.23,2.66,2.66,0,0,0-1.37,2.71Z" style="fill:#263238"></path><path d="M412.74,467.59c.05,0,.26-.27.47-.67s.34-.75.29-.77-.26.27-.47.67S412.69,467.57,412.74,467.59Z" style="fill:#263238"></path><path d="M411.35,467s.28-.15.55-.43.44-.54.4-.58-.28.16-.55.44S411.31,467,411.35,467Z" style="fill:#263238"></path><path d="M410.38,465.5c0,.06.39.07.87,0s.86-.1.85-.16a2.09,2.09,0,0,0-.87,0A2,2,0,0,0,410.38,465.5Z" style="fill:#263238"></path><path d="M410,464.42a1.59,1.59,0,0,0,1,.21,1.64,1.64,0,0,0,1-.21,4.91,4.91,0,0,0-1,0A6,6,0,0,0,410,464.42Z" style="fill:#263238"></path><path d="M413.19,466.11a3,3,0,0,0,1.06-.1,5.68,5.68,0,0,0,1.11-.34,3.26,3.26,0,0,0,.62-.31.6.6,0,0,0,.24-.35.44.44,0,0,0-.19-.42,2,2,0,0,0-2.37.77,2,2,0,0,0-.29.73.72.72,0,0,0,0,.29,3.11,3.11,0,0,1,.41-.94,1.79,1.79,0,0,1,.86-.66,1.6,1.6,0,0,1,1.27,0c.18.11.13.31-.05.44a2.39,2.39,0,0,1-.57.3,8.81,8.81,0,0,1-1.07.38C413.59,466,413.18,466.07,413.19,466.11Z" style="fill:#263238"></path><path d="M413.47,466.14a1.11,1.11,0,0,0,.06-.75,1.81,1.81,0,0,0-.35-.75,1.07,1.07,0,0,0-.93-.47.43.43,0,0,0-.29.51,1.16,1.16,0,0,0,.22.46,3,3,0,0,0,.55.61,1.67,1.67,0,0,0,.65.38s-.23-.18-.55-.49a4,4,0,0,1-.5-.6c-.16-.21-.29-.61,0-.68s.56.2.74.4a1.77,1.77,0,0,1,.35.66A4.26,4.26,0,0,1,413.47,466.14Z" style="fill:#263238"></path><path d="M395.49,466.46s.47-.08,1.23-.06a5.44,5.44,0,0,1,2.75.89,5.29,5.29,0,0,1,1.85,2.22c.31.68.37,1.16.41,1.15a.92.92,0,0,0,0-.33,4.07,4.07,0,0,0-.25-.88,5,5,0,0,0-4.73-3.19,4.62,4.62,0,0,0-.91.1A.87.87,0,0,0,395.49,466.46Z" style="fill:#263238"></path><path d="M396.65,459.44a32.7,32.7,0,0,0,.13,3.41,30.93,30.93,0,0,0,.33,3.39,27,27,0,0,0-.13-3.4A26.52,26.52,0,0,0,396.65,459.44Z" style="fill:#263238"></path><path d="M403.71,469a9.54,9.54,0,0,0,2.43,0,8.6,8.6,0,0,0,2.4-.39c0-.05-1.08.1-2.41.19S403.71,468.92,403.71,469Z" style="fill:#263238"></path><path d="M400.47,469.23s.11.22.24.46.21.45.27.45.06-.27-.09-.55S400.51,469.19,400.47,469.23Z" style="fill:#263238"></path><path d="M399.13,467.81s.09.2.27.36.36.26.4.22-.08-.21-.27-.37S399.17,467.77,399.13,467.81Z" style="fill:#263238"></path><path d="M397.33,467.26c0,.05.24,0,.48.1s.44.18.48.14-.12-.26-.43-.34S397.31,467.21,397.33,467.26Z" style="fill:#263238"></path><path d="M396.06,467c0,.05.09.13.23.17s.27,0,.28,0-.08-.13-.22-.17S396.08,467,396.06,467Z" style="fill:#263238"></path><polyline points="333.6 290.69 341.34 462.62 367.15 463.16 362.86 319.23 391.89 464.26 416 461.94 383.66 290.69" style="fill:#263238"></polyline><polygon points="390.73 463.05 391.67 465.48 416.7 462.28 415.76 458.4 390.73 463.05" style="fill:#455a64"></polygon><path d="M410.26,461.77c.13,0,.3.28.36.67s0,.73-.13.75-.3-.27-.36-.67S410.12,461.79,410.26,461.77Z" style="fill:#455a64"></path><path d="M409.31,456.14c.14,0,.35.59.48,1.37s.13,1.42,0,1.45-.35-.59-.48-1.37S409.17,456.17,409.31,456.14Z" style="fill:#455a64"></path><path d="M408.37,450.51c.13,0,.35.59.48,1.37s.13,1.43,0,1.45-.35-.59-.48-1.37S408.23,450.54,408.37,450.51Z" style="fill:#455a64"></path><path d="M407.42,444.88c.14,0,.35.59.48,1.37s.13,1.43,0,1.45-.35-.59-.48-1.37S407.28,444.91,407.42,444.88Z" style="fill:#455a64"></path><path d="M406.47,439.25c.14,0,.35.59.48,1.37s.13,1.43,0,1.45-.35-.59-.48-1.37S406.33,439.28,406.47,439.25Z" style="fill:#455a64"></path><path d="M405.52,433.62c.14,0,.35.59.49,1.37s.12,1.43,0,1.45-.36-.59-.49-1.37S405.38,433.65,405.52,433.62Z" style="fill:#455a64"></path><path d="M404.57,428c.13,0,.35.59.48,1.37s.13,1.43,0,1.45-.35-.59-.48-1.37S404.43,428,404.57,428Z" style="fill:#455a64"></path><path d="M403.61,422.36c.14,0,.36.59.49,1.37s.13,1.43,0,1.45-.35-.59-.49-1.37S403.48,422.39,403.61,422.36Z" style="fill:#455a64"></path><path d="M402.65,416.73c.14,0,.36.59.49,1.37s.13,1.43,0,1.45-.35-.59-.48-1.37S402.52,416.76,402.65,416.73Z" style="fill:#455a64"></path><path d="M401.69,411.11c.14,0,.35.58.49,1.36s.13,1.43,0,1.45-.35-.59-.49-1.36S401.55,411.13,401.69,411.11Z" style="fill:#455a64"></path><path d="M400.72,405.48c.14,0,.36.59.49,1.36s.13,1.43,0,1.45-.36-.58-.49-1.36S400.59,405.5,400.72,405.48Z" style="fill:#455a64"></path><path d="M399.75,399.85c.14,0,.36.59.49,1.37s.13,1.42,0,1.45-.36-.59-.49-1.37S399.61,399.88,399.75,399.85Z" style="fill:#455a64"></path><path d="M398.77,394.23c.14,0,.36.58.5,1.36s.13,1.43,0,1.45-.35-.59-.49-1.36S398.64,394.25,398.77,394.23Z" style="fill:#455a64"></path><path d="M397.79,388.6c.14,0,.36.59.49,1.36s.14,1.43,0,1.45-.35-.58-.49-1.36S397.66,388.63,397.79,388.6Z" style="fill:#455a64"></path><path d="M396.8,383c.14,0,.36.58.5,1.36s.13,1.43,0,1.45-.36-.59-.5-1.36S396.67,383,396.8,383Z" style="fill:#455a64"></path><path d="M395.81,377.35c.13,0,.36.59.49,1.37s.14,1.42,0,1.45-.36-.59-.5-1.37S395.67,377.38,395.81,377.35Z" style="fill:#455a64"></path><path d="M394.81,371.73c.13,0,.36.59.49,1.36s.14,1.43,0,1.45-.36-.58-.5-1.36S394.67,371.76,394.81,371.73Z" style="fill:#455a64"></path><path d="M393.8,366.11c.13,0,.36.59.5,1.36s.14,1.43,0,1.45-.36-.58-.5-1.36S393.66,366.14,393.8,366.11Z" style="fill:#455a64"></path><path d="M392.78,360.49c.14,0,.36.59.5,1.36s.15,1.43,0,1.45-.36-.58-.5-1.36S392.64,360.52,392.78,360.49Z" style="fill:#455a64"></path><path d="M391.75,354.88c.14,0,.36.58.51,1.36s.14,1.42,0,1.45-.36-.59-.51-1.36S391.62,354.9,391.75,354.88Z" style="fill:#455a64"></path><path d="M390.72,349.26c.13,0,.36.58.5,1.36s.15,1.42,0,1.45-.37-.58-.51-1.36S390.58,349.29,390.72,349.26Z" style="fill:#455a64"></path><path d="M389.67,343.65c.14,0,.37.58.51,1.35s.15,1.43,0,1.45-.37-.58-.51-1.35S389.54,343.67,389.67,343.65Z" style="fill:#455a64"></path><path d="M388.62,338c.14,0,.36.58.51,1.35s.15,1.43,0,1.45-.37-.58-.51-1.36S388.48,338.06,388.62,338Z" style="fill:#455a64"></path><path d="M387.55,332.43c.14,0,.37.58.52,1.35s.15,1.42,0,1.45-.37-.58-.51-1.36S387.42,332.45,387.55,332.43Z" style="fill:#455a64"></path><path d="M386.48,326.82c.13,0,.36.58.51,1.35s.16,1.43,0,1.45-.37-.58-.52-1.35S386.34,326.84,386.48,326.82Z" style="fill:#455a64"></path><path d="M385.39,321.21c.13,0,.37.58.52,1.36s.16,1.42,0,1.44-.36-.57-.51-1.35S385.25,321.24,385.39,321.21Z" style="fill:#455a64"></path><path d="M384.29,315.61c.13,0,.37.58.52,1.35s.17,1.42,0,1.45-.37-.58-.52-1.35S384.15,315.64,384.29,315.61Z" style="fill:#455a64"></path><path d="M383.17,310c.14,0,.37.58.53,1.35s.17,1.42,0,1.45-.37-.58-.52-1.35S383,310,383.17,310Z" style="fill:#455a64"></path><path d="M382,304.41c.14,0,.38.58.53,1.35s.18,1.42,0,1.45-.37-.58-.53-1.35S381.91,304.44,382,304.41Z" style="fill:#455a64"></path><path d="M380.9,298.81c.13,0,.37.58.53,1.35s.18,1.43,0,1.45-.37-.57-.53-1.35S380.76,298.84,380.9,298.81Z" style="fill:#455a64"></path><path d="M380,294.6c.13,0,.31.26.39.65s0,.73-.1.76-.31-.26-.39-.65S379.89,294.63,380,294.6Z" style="fill:#455a64"></path><path d="M362.7,461.75c.14,0,.27.31.29.71s-.08.73-.22.73-.26-.3-.28-.7S362.56,461.76,362.7,461.75Z" style="fill:#455a64"></path><path d="M362.46,456c.14,0,.28.63.31,1.42s-.06,1.43-.2,1.44-.27-.63-.3-1.42S362.32,456,362.46,456Z" style="fill:#455a64"></path><path d="M362.29,450.3c.13,0,.26.63.29,1.42s-.07,1.44-.21,1.44-.27-.63-.29-1.42S362.15,450.3,362.29,450.3Z" style="fill:#455a64"></path><path d="M362.14,444.57c.14,0,.27.63.29,1.42s-.08,1.44-.22,1.44-.27-.63-.29-1.42S362,444.57,362.14,444.57Z" style="fill:#455a64"></path><path d="M362,438.83c.14,0,.27.64.29,1.43s-.08,1.44-.22,1.44-.26-.64-.28-1.43S361.86,438.84,362,438.83Z" style="fill:#455a64"></path><path d="M361.85,433.1c.14,0,.27.63.29,1.43s-.07,1.43-.21,1.44-.27-.64-.29-1.43S361.72,433.1,361.85,433.1Z" style="fill:#455a64"></path><path d="M361.66,427.37c.14,0,.28.63.31,1.42s-.06,1.44-.2,1.44-.28-.63-.3-1.42S361.53,427.37,361.66,427.37Z" style="fill:#455a64"></path><path d="M361.42,421.64c.14,0,.28.63.31,1.42s-.05,1.44-.19,1.44-.27-.63-.31-1.42S361.29,421.64,361.42,421.64Z" style="fill:#455a64"></path><path d="M361.2,415.91c.14,0,.28.63.31,1.42s-.06,1.44-.2,1.44-.28-.63-.31-1.42S361.06,415.92,361.2,415.91Z" style="fill:#455a64"></path><path d="M361,410.18c.14,0,.27.63.3,1.43s-.06,1.43-.2,1.44-.27-.64-.3-1.43S360.86,410.19,361,410.18Z" style="fill:#455a64"></path><path d="M360.83,404.45c.13,0,.26.63.29,1.42s-.07,1.44-.21,1.44-.27-.63-.29-1.42S360.69,404.45,360.83,404.45Z" style="fill:#455a64"></path><path d="M360.68,398.72c.13,0,.26.63.28,1.42s-.07,1.44-.21,1.44-.27-.63-.29-1.42S360.54,398.72,360.68,398.72Z" style="fill:#455a64"></path><path d="M360.55,393c.14,0,.27.63.28,1.42s-.08,1.44-.22,1.44-.26-.64-.28-1.43S360.41,393,360.55,393Z" style="fill:#455a64"></path><path d="M360.46,387.25c.13,0,.26.64.27,1.43s-.09,1.44-.23,1.44-.26-.64-.27-1.43S360.32,387.26,360.46,387.25Z" style="fill:#455a64"></path><path d="M360.39,381.52c.13,0,.25.64.26,1.43s-.09,1.44-.23,1.44-.26-.64-.27-1.43S360.25,381.52,360.39,381.52Z" style="fill:#455a64"></path><path d="M360.35,375.79c.13,0,.25.64.25,1.43s-.1,1.43-.24,1.44-.25-.64-.26-1.44S360.21,375.79,360.35,375.79Z" style="fill:#455a64"></path><path d="M360.33,370.06c.14,0,.25.64.26,1.43s-.12,1.43-.25,1.43-.26-.64-.26-1.43S360.19,370.06,360.33,370.06Z" style="fill:#455a64"></path><path d="M360.35,364.32c.14,0,.25.65.24,1.44s-.11,1.43-.25,1.43-.25-.64-.25-1.43S360.21,364.32,360.35,364.32Z" style="fill:#455a64"></path><path d="M360.39,358.59c.14,0,.25.65.24,1.44s-.12,1.43-.26,1.43-.25-.65-.24-1.44S360.26,358.59,360.39,358.59Z" style="fill:#455a64"></path><path d="M360.47,352.86c.14,0,.24.65.23,1.44s-.13,1.43-.27,1.43-.24-.65-.23-1.44S360.33,352.86,360.47,352.86Z" style="fill:#455a64"></path><path d="M360.57,347.13c.14,0,.24.65.22,1.44s-.14,1.43-.27,1.43-.24-.65-.23-1.44S360.43,347.13,360.57,347.13Z" style="fill:#455a64"></path><path d="M360.7,341.4c.14,0,.24.64.22,1.44s-.15,1.43-.29,1.42-.23-.64-.22-1.44S360.56,341.39,360.7,341.4Z" style="fill:#455a64"></path><path d="M360.9,335.66c.14,0,.23.65.2,1.44s-.17,1.43-.31,1.43-.23-.65-.2-1.45S360.76,335.65,360.9,335.66Z" style="fill:#455a64"></path><path d="M361.24,329.93c.13,0,.2.66.15,1.45s-.2,1.42-.34,1.42-.21-.66-.16-1.45S361.1,329.92,361.24,329.93Z" style="fill:#455a64"></path><path d="M361.76,324.23c.14,0,.18.66.1,1.45s-.25,1.41-.39,1.4-.18-.66-.1-1.45S361.62,324.21,361.76,324.23Z" style="fill:#455a64"></path><path d="M362.31,320c.14,0,.21.35.15.74s-.21.7-.35.68-.2-.35-.14-.75S362.18,319.94,362.31,320Z" style="fill:#455a64"></path><polygon points="340.66 463.45 367.96 463.9 367.75 459.35 340.66 459.49 340.66 463.45" style="fill:#455a64"></polygon><path d="M358.56,292.87a4.23,4.23,0,0,1,.17,1.05c.07.68.16,1.66.25,2.88.2,2.43.44,5.79.67,9.5.1,1.85.21,3.62.3,5.24a16.05,16.05,0,0,0,.5,4.18,3.51,3.51,0,0,0,1.74,2.07,5.61,5.61,0,0,0,1,.29s-.09,0-.27,0a2,2,0,0,1-.8-.15,3.59,3.59,0,0,1-2-2.12,15.08,15.08,0,0,1-.63-4.28c-.11-1.62-.22-3.39-.34-5.23-.23-3.72-.41-7.08-.52-9.52-.05-1.22-.09-2.2-.1-2.89A4.89,4.89,0,0,1,358.56,292.87Z" style="fill:#455a64"></path><path d="M361.21,295.15c0,.07-.21.24-.24.65a.79.79,0,0,0,.2.58.61.61,0,0,0,.68.09.62.62,0,0,0,.42-.53.81.81,0,0,0-.27-.56c-.3-.28-.6-.22-.62-.29s.32-.29.83,0a1.08,1.08,0,0,1,.52.84,1.12,1.12,0,0,1-1.9.77,1.11,1.11,0,0,1-.21-1C360.78,295.17,361.21,295.09,361.21,295.15Z" style="fill:#455a64"></path><path d="M385.5,299.23a4.93,4.93,0,0,1-2.14.82,9.29,9.29,0,0,1-5.5-.61,9.17,9.17,0,0,1-4.12-3.69,4.83,4.83,0,0,1-.82-2.14c.08,0,.34.8,1.12,1.95a9.71,9.71,0,0,0,4,3.42,9.87,9.87,0,0,0,5.24.72C384.67,299.51,385.47,299.15,385.5,299.23Z" style="fill:#455a64"></path><path d="M342.58,292.87a3.76,3.76,0,0,1-.1,1.87,7.32,7.32,0,0,1-6.44,5.64,3.64,3.64,0,0,1-1.86-.15c0-.08.71,0,1.81-.2a7.69,7.69,0,0,0,6.15-5.39C342.47,293.58,342.49,292.87,342.58,292.87Z" style="fill:#455a64"></path><path d="M352,211.43l-.53-3.12s8.53,0,9.62,4.51c0,0,2.26-4.13,8.78-5.22v4.83l-9.2,2.83Z" style="fill:#e0e0e0"></path><path d="M376,212.77c-2.27,0-4.4-1.24-7-1.35h0a28.22,28.22,0,0,1-17,0,82.42,82.42,0,0,0-15.45,2.86l-31.08,10.08-3.91,17.53,33.63-2.12s-3.19,45.55-1.56,53.09l50.22-1.31-2.26-27.62.59-17.3,12.1,17.08,18-10.72S390.93,212.71,376,212.77Z" style="fill:#e0e0e0"></path><path d="M365.53,238.29a3.74,3.74,0,0,1,.73,0l2.16,0,7.83-.1h.18v.19c0,1.46,0,3,0,4.71,0,.85,0,1.69,0,2.59a5.36,5.36,0,0,1-.86,2.62,5.58,5.58,0,0,1-3.46,2.42,5.52,5.52,0,0,1-6.29-3.21,5.85,5.85,0,0,1-.42-1.59c0-.52,0-1,0-1.5,0-1.84.06-3.35.08-4.46,0-.48,0-.87,0-1.19a1.7,1.7,0,0,1,0-.39,2.86,2.86,0,0,1,0,.45c0,.32,0,.73,0,1.22,0,1.1.05,2.59.08,4.4,0,.46,0,.95.05,1.44a5.85,5.85,0,0,0,.41,1.48,5.2,5.2,0,0,0,5.89,2.95,5.17,5.17,0,0,0,3.2-2.25,5.08,5.08,0,0,0,.8-2.42c0-.85,0-1.73,0-2.56,0-1.67,0-3.25,0-4.71l.19.18-7.71-.09-2.2,0Z" style="fill:#263238"></path><path d="M375.9,240s.11-.05.33-.07v.14c-.73.08-2.77.14-5.16.14a37,37,0,0,1-5.49-.21,35.47,35.47,0,0,1,5.49-.21c2.39,0,4.43.06,5.16.14v.14C376,240,375.9,240,375.9,240Z" style="fill:#263238"></path><path d="M358.56,292.87a7.37,7.37,0,0,1-.05-.81c0-.58,0-1.35-.07-2.32,0-2-.07-4.95-.07-8.56,0-7.22.14-17.2.59-28.21s1.07-21,1.57-28.19c.26-3.56.47-6.46.62-8.53q.14-1.44.21-2.31a4.83,4.83,0,0,1,.1-.81,4.16,4.16,0,0,1,0,.81c0,.58-.06,1.36-.1,2.33-.11,2.07-.27,5-.47,8.54-.4,7.21-1,17.17-1.41,28.18s-.66,21-.74,28.19c0,3.57-.07,6.48-.09,8.55,0,1,0,1.75,0,2.33A3.93,3.93,0,0,1,358.56,292.87Z" style="fill:#263238"></path><path d="M360.57,279.15c.07,0,.24.38.84.52a1.15,1.15,0,0,0,.94-.15,1,1,0,0,0,.35-1,1,1,0,0,0-.71-.82,1.16,1.16,0,0,0-.92.22c-.5.35-.51.81-.59.8s-.22-.53.35-1.08a1.46,1.46,0,0,1,1.26-.41,1.52,1.52,0,0,1,.52,2.71,1.49,1.49,0,0,1-1.32.09C360.56,279.72,360.5,279.13,360.57,279.15Z" style="fill:#263238"></path><path d="M361.13,258.31c.07,0,.25.38.84.52a1.14,1.14,0,0,0,.94-.15,1,1,0,0,0,.35-1,1,1,0,0,0-.7-.82,1.18,1.18,0,0,0-.93.22c-.5.35-.5.81-.59.8s-.22-.53.35-1.08a1.47,1.47,0,0,1,1.26-.41,1.52,1.52,0,0,1,.52,2.71,1.49,1.49,0,0,1-1.32.09C361.12,258.88,361.06,258.29,361.13,258.31Z" style="fill:#263238"></path><path d="M362.38,234.52c.07,0,.25.38.84.52a1.18,1.18,0,0,0,.94-.15,1,1,0,0,0,.35-1,1,1,0,0,0-.7-.82,1.18,1.18,0,0,0-.93.22c-.5.35-.5.81-.59.8s-.22-.53.35-1.08a1.46,1.46,0,0,1,1.26-.41,1.52,1.52,0,0,1,.52,2.71,1.52,1.52,0,0,1-1.32.09C362.37,235.09,362.31,234.5,362.38,234.52Z" style="fill:#263238"></path><path d="M359.25,210.87c.07.06-.39.6-.84,1.65a19.9,19.9,0,0,0-1.11,4.37l-.09.52-.36-.39-.47-.5a48.85,48.85,0,0,1-4.68-5.38,50.09,50.09,0,0,1,5.07,5l.46.51-.44.13a15,15,0,0,1,1.31-4.43A3.68,3.68,0,0,1,359.25,210.87Z" style="fill:#263238"></path><path d="M369.46,211.13a31.27,31.27,0,0,1-4,4.16c-.16.11-.24.3-.6.41a.55.55,0,0,1-.5-.15.73.73,0,0,1-.19-.37,6.29,6.29,0,0,1,0-1.12,5.55,5.55,0,0,0-.36-1.72c-.36-.94-.8-1.43-.73-1.49s.59.37,1.07,1.35a5.08,5.08,0,0,1,.5,1.83,10.2,10.2,0,0,0,0,1c.06.16.07.14.1.14s.19-.15.34-.28A32.69,32.69,0,0,1,369.46,211.13Z" style="fill:#263238"></path><path d="M393,268.84c2.89,6.57,5.39,13,8.28,19.53,1.46,3.29,3.11,6.81,6.25,8.57,1.27.72,3.11,1,4-.16s.28-2.79-.39-4.07a101.17,101.17,0,0,0-17.43-23.81" style="fill:#6C63FD"></path><g style="opacity:0.5"><path d="M393,268.84c2.89,6.57,5.39,13,8.28,19.53,1.46,3.29,3.11,6.81,6.25,8.57,1.27.72,3.11,1,4-.16s.28-2.79-.39-4.07a101.17,101.17,0,0,0-17.43-23.81"></path></g><path d="M387,289.6l-2.43-12.5s13-7.7,14-8.48L384.87,248l16.4-7.82s18.76,29.57,16.85,34.06c-2.82,6.66-20.45,12.33-27.86,14.45h0l4.52,6.33,4.18,3.29-.68,2.23s-10.39-3.57-10.16-3.65-.49-3.71-1.11-7.31Z" style="fill:#b76f4f"></path><path d="M372.13,211.13l7.76,160.36s17.25-6.89,22-5.73,9.75,3.07,14.07,1.43L386.38,293.6l.28-40.6,9,14L393,268.84l19.19,26.47s6.34-12.23,7.46-20.95-10.82-29.93-10.82-29.93S392.3,210.83,372.13,211.13Z" style="fill:#6C63FD"></path><g style="opacity:0.5"><path d="M379.89,371.49s17.25-6.89,22-5.74,9.75,3.07,14.07,1.44l-2.74-6.79s-15.89-.92-19.45-.38-14.23,5.13-14.23,5.13Z"></path></g><path d="M408.21,281.78c-.08,0-.59-.93-1.58-2.4a47.26,47.26,0,0,0-4.3-5.39c-1.82-2-3.56-3.71-4.78-5a15.31,15.31,0,0,0-1.37-1.57c-.36-.33-.62-.41-.61-.45s.31,0,.74.29a10.8,10.8,0,0,1,1.51,1.49c1.25,1.22,3.07,2.91,4.89,4.93a35.4,35.4,0,0,1,4.23,5.54A10.57,10.57,0,0,1,408.21,281.78Z" style="fill:#263238"></path><path d="M408.6,275.71c-.1.11-2.73-2.18-6.27-4.59s-6.63-4.05-6.55-4.19a9,9,0,0,1,2.1.91,45.81,45.81,0,0,1,4.74,2.85,43.16,43.16,0,0,1,4.37,3.39A8.42,8.42,0,0,1,408.6,275.71Z" style="fill:#263238"></path><path d="M306.41,365.76c6,4.78,10.8-1.26,20.11,0s16.13,1.76,16.13,1.76l3-155.28c-8.57-1.9-40.17,12.13-40.17,12.13l-18.27-23.93L269,209.34s22.72,35.11,24.72,37.2,39.92-4.64,39.92-4.64a460.18,460.18,0,0,1-7.47,56.94Z" style="fill:#6C63FD"></path><g style="opacity:0.5"><path d="M342.66,367.52s-6.81-.51-16.13-1.76-14.14,4.78-20.11,0l1.45-4.95s6.48,1.27,11.41-.22,8.82-1.39,11.14-.83,12.24,2.13,12.24,2.13Z"></path></g><path d="M335.2,229.26a49.5,49.5,0,0,1-.71,7.29,49.9,49.9,0,0,1-1.24,7.21,52,52,0,0,1,.72-7.28A52.54,52.54,0,0,1,335.2,229.26Z" style="fill:#263238"></path><g style="opacity:0.5"><polygon points="268.96 209.34 272.33 214.54 290.88 205.3 287.17 200.44 268.96 209.34"></polygon></g><path d="M299.08,232.29a14.89,14.89,0,0,1,5.92-7.8c.1.12-1.58,1.55-3.21,3.71S299.23,232.35,299.08,232.29Z" style="fill:#263238"></path><path d="M302.32,232.57a9.07,9.07,0,0,1,.79-4.48,9.17,9.17,0,0,1,2.45-3.84c.13.09-1.08,1.72-2,4S302.48,232.58,302.32,232.57Z" style="fill:#263238"></path><path d="M285.41,202.5s-2.75-5.51-3.13-6.35a74.34,74.34,0,0,1-2.39-7.38s-1.64-.36-1.53,3.3-.64,2.65-.64,2.65-7.6-9.24-9.44-8.63c-.69.23.26,2.42,1.51,3.61a25.16,25.16,0,0,1,2.63,3.1s-7.15-6.45-8.79-5.43c0,0-.81.63,1.47,2.53a51.44,51.44,0,0,1,5.29,5.11s-7.09-5-7.89-4.46c-1.33.9,5.86,6,7.05,7.9,0,0-5.35-4.1-5.49-2.79s6.51,5.94,9.55,12.65Z" style="fill:#b76f4f"></path><path d="M279.69,195.62c.05.08-.48.36-1.09,1a5.14,5.14,0,0,0-1.29,3.22v.63l-.43-.47,0,0a6.29,6.29,0,0,0-3-1.87c-.9-.24-1.49-.23-1.5-.31a2.81,2.81,0,0,1,1.58,0,5.82,5.82,0,0,1,3.31,1.88l0,0-.44.16a5,5,0,0,1,1.54-3.46A2.56,2.56,0,0,1,279.69,195.62Z" style="fill:#754330"></path><path d="M347.51,284.85c-1.65,6.27-6.94,21.15-4.86,25.72,3.55,7.84.72,19.05.72,19.05l-21.89-3.56s4.73-10.85,3.89-21.65,5.44-20.88,8.23-27.21,7.55-57.93,7.76-62.43c.14-3.11,4.35-4.8,7-5.56,1.17-.34,2-.49,2-.49S350.38,274,347.51,284.85Z" style="fill:#455a64"></path><path d="M344.27,325.21a7.62,7.62,0,0,0-2.2-2.45,5.77,5.77,0,0,0-3.34-1,20.45,20.45,0,0,0-4.32.92,11.51,11.51,0,0,1-8.1-.91,9.94,9.94,0,0,1-2.07-1.41,2.75,2.75,0,0,1-.62-.67,23.87,23.87,0,0,0,2.85,1.75,11.77,11.77,0,0,0,7.81.74,18.71,18.71,0,0,1,4.45-.9,5.88,5.88,0,0,1,3.55,1.16,5.78,5.78,0,0,1,1.67,1.88A2.42,2.42,0,0,1,344.27,325.21Z" style="fill:#263238"></path><path d="M344.6,317.45a5.45,5.45,0,0,0-2.62-1.27,7.94,7.94,0,0,0-3.17.16c-1.19.27-2.45.76-3.84,1.16a10.5,10.5,0,0,1-4.07.4,9.84,9.84,0,0,1-3.21-.89,8.67,8.67,0,0,1-1.91-1.18c-.41-.34-.59-.56-.57-.58a23.32,23.32,0,0,0,2.62,1.43,10.46,10.46,0,0,0,7,.32c1.36-.39,2.64-.87,3.87-1.13a7.92,7.92,0,0,1,3.35-.05,4.55,4.55,0,0,1,2,1C344.48,317.17,344.62,317.43,344.6,317.45Z" style="fill:#263238"></path><path d="M372.13,211.13s5.29-2.12,8.15.28c1.48,1.25,8.39,78.59,7.12,94.14s-4.58,23.15-4.58,23.15l-22.7-4s7.23-23.48,9.18-40.35S372.13,211.13,372.13,211.13Z" style="fill:#455a64"></path><path d="M385,321.22a3.41,3.41,0,0,1-.88.51,21.85,21.85,0,0,1-2.54,1.07,10.12,10.12,0,0,1-4.08.6,12.09,12.09,0,0,1-4.78-1.65,33.92,33.92,0,0,0-4.4-2.24,7.14,7.14,0,0,0-3.87-.46,5,5,0,0,0-2.4,1.09c-.47.42-.66.73-.7.71a2,2,0,0,1,.56-.85,4.83,4.83,0,0,1,2.46-1.31,7.33,7.33,0,0,1,4.12.36,32.36,32.36,0,0,1,4.48,2.25,12.14,12.14,0,0,0,4.57,1.63,10.45,10.45,0,0,0,3.93-.48C383.61,321.76,384.91,321.13,385,321.22Z" style="fill:#263238"></path><path d="M385.52,316.38a3.73,3.73,0,0,1-.84.57,23.49,23.49,0,0,1-2.43,1.28,13.14,13.14,0,0,1-3.94,1.14,7.57,7.57,0,0,1-4.91-1.1c-1.55-.93-2.78-2.08-4.06-2.86a6.37,6.37,0,0,0-3.69-1.16,3.91,3.91,0,0,0-2.42.91c-.47.41-.62.75-.67.72s0-.09.09-.25a2.25,2.25,0,0,1,.44-.62,4,4,0,0,1,2.54-1.13,6.59,6.59,0,0,1,4,1.12c1.34.8,2.59,1.94,4.07,2.83a7.3,7.3,0,0,0,4.6,1.06,13.51,13.51,0,0,0,3.84-1C384.22,317,385.47,316.3,385.52,316.38Z" style="fill:#263238"></path><path d="M269.3,198.92a5.45,5.45,0,0,0-2.26,4.36,28.94,28.94,0,0,0,.42,5.08,8.54,8.54,0,0,1-.67,5,6.53,6.53,0,0,1-3.52,2.86,13.83,13.83,0,0,1-4.56.73,6.34,6.34,0,0,0,2.77,1.34L257,220.14c2.57,1.43,5.8,1,8.55,0a13.73,13.73,0,0,0,5.74-3.91,8.59,8.59,0,0,0,2-6.52c-.26-1.84-1.23-3.51-1.52-5.33a7.56,7.56,0,0,1,2.82-7.08" style="fill:#6C63FD"></path><path d="M271.81,171l-6.18,56.42c1.57,3.42,4.63,3.81,8.9,1.68l6-57.82C278.13,168.26,275.15,168.55,271.81,171Z" style="fill:#fafafa"></path><path d="M271.81,171s0,0,.12-.11l.39-.3a11.37,11.37,0,0,1,1.66-1,5.88,5.88,0,0,1,3.07-.61,5.45,5.45,0,0,1,3.6,2.21l0,0v.06c-1.13,11.59-3.3,33-5.84,57.36l0,.47,0,.14-.12.07a10.3,10.3,0,0,1-5.2,1.3,4.5,4.5,0,0,1-2.5-1,5.93,5.93,0,0,1-1.55-2.12l0-.07v-.07c1.8-16,3.37-30.12,4.51-40.26.58-5,1.05-9,1.37-11.86.17-1.36.3-2.43.39-3.18l.12-.82c0-.18,0-.28.05-.27s0,.1,0,.29,0,.49-.07.84c-.08.77-.18,1.85-.31,3.22-.29,2.83-.71,6.88-1.23,11.91-1.08,10.13-2.59,24.21-4.3,40.19l0-.14a5.6,5.6,0,0,0,1.42,1.94,4,4,0,0,0,2.22.88,9.93,9.93,0,0,0,4.91-1.26l-.14.21.05-.47c2.54-24.4,4.81-45.77,6.09-57.34l0,.1a5.26,5.26,0,0,0-3.41-2.18,5.83,5.83,0,0,0-3,.54A19.58,19.58,0,0,0,271.81,171Z" style="fill:#263238"></path><path d="M274.38,229.3c-.09,0-.21-.62-.77-1.45a4.8,4.8,0,0,0-6.79-1.35c-.84.55-1.2,1.1-1.27,1.05s.21-.67,1.05-1.35a4.87,4.87,0,0,1,7.32,1.46A2.66,2.66,0,0,1,274.38,229.3Z" style="fill:#263238"></path><path d="M273.48,227.77s-.36.69-1.44,1.22a4.78,4.78,0,0,1-2,.48,5,5,0,0,1-1.24-.16,2.21,2.21,0,0,1-1.2-.74,1.35,1.35,0,0,1-.16-1.48,1.42,1.42,0,0,1,1.21-.65,1.61,1.61,0,0,1,1.69,1.3,1,1,0,0,1-.35.83.71.71,0,0,1-.67.1c-.37-.15-.37-.42-.33-.41s.1.16.38.21a.5.5,0,0,0,.43-.12.64.64,0,0,0,.17-.57,1.23,1.23,0,0,0-1.3-.86,1,1,0,0,0-.79.42.84.84,0,0,0,.13.91,2.79,2.79,0,0,0,2,.74,5.06,5.06,0,0,0,1.88-.33A13.23,13.23,0,0,0,273.48,227.77Z" style="fill:#263238"></path><path d="M278.72,169.69a1.89,1.89,0,0,1,0,.57c-.05.43-.12,1-.21,1.63-.2,1.48-.49,3.51-.83,6-.7,5.12-1.64,12-2.69,19.72s-2,14.67-2.84,19.71c-.4,2.51-.74,4.55-1,6l-.3,1.61a3.88,3.88,0,0,1-.14.56,2.13,2.13,0,0,1,0-.58c.06-.43.13-1,.21-1.62.21-1.49.49-3.51.84-6,.69-5.11,1.64-12,2.69-19.72s2-14.67,2.84-19.7c.4-2.52.74-4.55,1-5.95.13-.65.23-1.19.31-1.61A2.7,2.7,0,0,1,278.72,169.69Z" style="fill:#263238"></path><path d="M268.76,200.52s5-3.55,8.4,1.07l.58-5.91s-3.49-4.21-8.44-.51Z" style="fill:#6C63FD"></path></g><g id="freepik--character-1--inject-5"><path d="M175.08,463.75l-.17-9-16.81.2.1,13.13,1.05.06c4.64.2,23.62.7,26.71-.28C189.4,466.8,175.08,463.75,175.08,463.75Z" style="fill:#6C63FD"></path><g style="opacity:0.4"><path d="M164.3,467.91a5.88,5.88,0,0,0-2.19-3.56,5.7,5.7,0,0,0-4-1.18l.06,4.7Z"></path></g><g style="opacity:0.4"><path d="M182.08,465.49s5,1.38,4.41,2.22-19.81,1.05-28.29.4l0-.37,22.4-.07S181.1,465.54,182.08,465.49Z"></path></g><path d="M158,467.73l.29,0,.83,0,3.06.09c2.58.07,6.15.11,10.09.07s7.51-.16,10.09-.28l3.06-.16.83-.06.28,0h-.29l-.83,0-3.05.1c-2.59.08-6.15.17-10.09.21s-7.51,0-10.09,0l-3.06,0H158Z" style="fill:#263238"></path><path d="M180.62,467.93a6.78,6.78,0,0,1,.55-1.46,7,7,0,0,1,1-1.18,2.24,2.24,0,0,0-1.2,1.07A2.29,2.29,0,0,0,180.62,467.93Z" style="fill:#263238"></path><path d="M175.63,465.47c.05,0,.28-.26.52-.65s.4-.73.35-.76-.28.26-.52.65S175.58,465.44,175.63,465.47Z" style="fill:#263238"></path><path d="M174.26,464.77s.3-.14.59-.4.49-.51.45-.56-.3.14-.59.41S174.22,464.73,174.26,464.77Z" style="fill:#263238"></path><path d="M173.38,463.19a1.93,1.93,0,0,0,.88.1.45.45,0,1,0,0-.2A1.93,1.93,0,0,0,173.38,463.19Z" style="fill:#263238"></path><path d="M173.07,462.08a1.75,1.75,0,0,0,1,.27,1.7,1.7,0,0,0,1-.15,4.87,4.87,0,0,0-1-.05A4.48,4.48,0,0,0,173.07,462.08Z" style="fill:#263238"></path><path d="M176.18,464a3.17,3.17,0,0,0,1.08,0,6,6,0,0,0,1.15-.27,2.61,2.61,0,0,0,.66-.28.59.59,0,0,0,.26-.33.43.43,0,0,0-.17-.43,2,2,0,0,0-2.44.6,2.05,2.05,0,0,0-.35.73.59.59,0,0,0,0,.29,3.11,3.11,0,0,1,.48-.93,2,2,0,0,1,.92-.61,1.67,1.67,0,0,1,1.28.08c.18.12.11.32-.08.44a3,3,0,0,1-.6.27,8.17,8.17,0,0,1-1.11.3C176.59,464,176.18,464,176.18,464Z" style="fill:#263238"></path><path d="M176.46,464.05a1.07,1.07,0,0,0,.12-.75,1.76,1.76,0,0,0-.31-.79,1.08,1.08,0,0,0-.9-.54.43.43,0,0,0-.33.5,1.15,1.15,0,0,0,.19.48,3,3,0,0,0,.52.65,1.52,1.52,0,0,0,.62.43s-.22-.19-.52-.53a3.93,3.93,0,0,1-.46-.64c-.15-.23-.25-.64,0-.69s.55.24.71.45a1.75,1.75,0,0,1,.32.7A3.75,3.75,0,0,1,176.46,464.05Z" style="fill:#263238"></path><path d="M158.25,463.12s.48-.05,1.24,0a5.28,5.28,0,0,1,4.45,3.46c.26.72.29,1.21.33,1.2a1,1,0,0,0,0-.34,4.28,4.28,0,0,0-.2-.9,5.11,5.11,0,0,0-4.56-3.56,5.08,5.08,0,0,0-.93,0A1.49,1.49,0,0,0,158.25,463.12Z" style="fill:#263238"></path><path d="M159.91,456.11a31.25,31.25,0,0,0-.1,3.45,28.79,28.79,0,0,0,.1,3.46,31.52,31.52,0,0,0,.1-3.46A28.55,28.55,0,0,0,159.91,456.11Z" style="fill:#263238"></path><path d="M166.39,466.24a9.4,9.4,0,0,0,2.46.22,9,9,0,0,0,2.46-.23c0-.05-1.1,0-2.46,0S166.4,466.18,166.39,466.24Z" style="fill:#263238"></path><path d="M163.1,466.28s.09.23.21.48.18.47.23.47.09-.27,0-.56S163.13,466.24,163.1,466.28Z" style="fill:#263238"></path><path d="M161.84,464.74s.07.22.25.39.35.29.39.25-.07-.22-.25-.39S161.88,464.7,161.84,464.74Z" style="fill:#263238"></path><path d="M160.05,464.06c0,.06.24.05.49.14s.43.21.47.17-.1-.27-.41-.37S160,464,160.05,464.06Z" style="fill:#263238"></path><path d="M158.78,463.74c0,.05.08.14.22.19s.27.05.29,0-.08-.14-.22-.19S158.8,463.69,158.78,463.74Z" style="fill:#263238"></path><path d="M44.1,344.48,52,348.83l8.24-14.66-11.43-6.48-.56.88c-2.5,3.92-12.42,20.1-13.12,23.27C34.3,355.37,44.1,344.48,44.1,344.48Z" style="fill:#6C63FD"></path><g style="opacity:0.4"><path d="M45.89,333.07a5.8,5.8,0,0,0,4.18-.12,5.68,5.68,0,0,0,3-2.82L49,327.82Z"></path></g><g style="opacity:0.4"><path d="M39.09,349.68s-3.71,3.66-4.12,2.71,9-17.68,13.79-24.7l.32.21L37.93,347.32S39.54,348.81,39.09,349.68Z"></path></g><path d="M49.22,327.67a1.19,1.19,0,0,0-.17.24c-.14.21-.29.44-.45.7L47,331.21c-1.34,2.2-3.16,5.27-5.1,8.7s-3.62,6.59-4.8,8.88l-1.39,2.73-.37.74a1.35,1.35,0,0,0-.11.27s.06-.08.15-.25l.4-.73,1.44-2.69c1.22-2.28,2.93-5.41,4.86-8.85s3.73-6.51,5-8.73c.61-1,1.13-1.92,1.56-2.63l.41-.72A1.84,1.84,0,0,0,49.22,327.67Z" style="fill:#263238"></path><path d="M37.71,347.19a7.31,7.31,0,0,1,1,1.21,6.92,6.92,0,0,1,.51,1.48,2.25,2.25,0,0,0-.33-1.58A2.3,2.3,0,0,0,37.71,347.19Z" style="fill:#263238"></path><path d="M42.33,344.1s.09.37.31.78.43.71.48.68-.09-.38-.3-.78S42.38,344.07,42.33,344.1Z" style="fill:#263238"></path><path d="M43.63,343.27c-.06,0,0,.33,0,.71s.2.67.26.66,0-.33-.06-.71S43.68,343.25,43.63,343.27Z" style="fill:#263238"></path><path d="M45.43,343.29a2.22,2.22,0,0,0-.52.71c-.25.42-.4.79-.35.82a2.22,2.22,0,0,0,.52-.71C45.33,343.69,45.48,343.32,45.43,343.29Z" style="fill:#263238"></path><path d="M46.56,343.59s-.42.23-.73.71a1.7,1.7,0,0,0-.38.95,7.08,7.08,0,0,0,.55-.84A5.58,5.58,0,0,0,46.56,343.59Z" style="fill:#263238"></path><path d="M43.33,345.32a3,3,0,0,0-.52.94,6.11,6.11,0,0,0-.34,1.13,3.06,3.06,0,0,0-.09.71.58.58,0,0,0,.16.39.43.43,0,0,0,.46.07,2,2,0,0,0,.69-2.42,1.83,1.83,0,0,0-.45-.66c-.14-.13-.23-.18-.24-.17a3.38,3.38,0,0,1,.56.88,2,2,0,0,1,.07,1.1,1.67,1.67,0,0,1-.71,1.08c-.19.09-.34-.07-.34-.29a3.7,3.7,0,0,1,.07-.66,9.27,9.27,0,0,1,.29-1.11C43.16,345.69,43.36,345.33,43.33,345.32Z" style="fill:#263238"></path><path d="M43.15,345.53s.14.29.59.48a1.77,1.77,0,0,0,.83.13,1.1,1.1,0,0,0,.93-.51.44.44,0,0,0-.28-.54,1.33,1.33,0,0,0-.51-.08,3.2,3.2,0,0,0-.82.13,1.56,1.56,0,0,0-.68.32s.27-.09.72-.18a3.6,3.6,0,0,1,.78-.08c.28,0,.68.1.59.36s-.48.36-.75.39a1.69,1.69,0,0,1-.76-.07A3.34,3.34,0,0,1,43.15,345.53Z" style="fill:#263238"></path><path d="M53.06,330.23s-.2.44-.65,1.06a5.3,5.3,0,0,1-5.22,2.12,11.29,11.29,0,0,1-1.2-.32s.1.08.3.17a4.48,4.48,0,0,0,.88.29,5.11,5.11,0,0,0,5.36-2.18,3.65,3.65,0,0,0,.43-.82A1.1,1.1,0,0,0,53.06,330.23Z" style="fill:#263238"></path><path d="M58.3,335.18a27,27,0,0,0-2.93-1.82,29.49,29.49,0,0,0-3-1.65,29.15,29.15,0,0,0,2.94,1.82A30,30,0,0,0,58.3,335.18Z" style="fill:#263238"></path><path d="M46.29,335.72a9.1,9.1,0,0,0-1.42,2,9.45,9.45,0,0,0-1,2.24s.53-1,1.21-2.14S46.33,335.75,46.29,335.72Z" style="fill:#263238"></path><path d="M47.91,332.85c0-.06-.25,0-.53-.06s-.5-.09-.52,0,.19.2.51.23S47.92,332.9,47.91,332.85Z" style="fill:#263238"></path><path d="M49.86,332.52s-.22,0-.46,0-.42.16-.4.22.22,0,.46,0S49.88,332.58,49.86,332.52Z" style="fill:#263238"></path><path d="M51.35,331.32c-.06,0-.16.18-.36.35s-.4.26-.39.32.28.05.52-.17S51.4,331.33,51.35,331.32Z" style="fill:#263238"></path><path d="M52.26,330.38s-.16,0-.27.09-.19.21-.15.26.16,0,.27-.1S52.29,330.42,52.26,330.38Z" style="fill:#263238"></path><path d="M168.87,300.07s13.75,66.73,13.56,77.39c-.07,4.46,0,83.44,0,83.44l-29.23.73,0-85.84c0,4.2-16.22-75.72-16.22-75.72Z" style="fill:#263238"></path><path d="M109.64,358.92l10-39.85c-1.85-4.87-.57-14.35,1.65-23.72l.76-3.18,36.76,6.34,10,1.72-5.76,7.33c-14,33.38-23.56,55.5-29.94,69.32-4.89,10.61-15.92,11.86-26.77,7.51l-60-34.78L58.5,327.85Z" style="fill:#263238"></path><path d="M63.26,330.74a3.87,3.87,0,0,1-.41.92c-.29.57-.72,1.39-1.28,2.4-1.1,2-2.66,4.76-4.44,7.78s-3.42,5.73-4.66,7.66c-.62,1-1.14,1.74-1.51,2.26a3.41,3.41,0,0,1-.64.77,3.79,3.79,0,0,1,.47-.88c.38-.66.84-1.44,1.37-2.34l4.52-7.73,4.58-7.71,1.42-2.31C63,331,63.22,330.72,63.26,330.74Z" style="fill:#455a64"></path><path d="M117.77,366.84a1.82,1.82,0,0,1-.18.36l-.59,1c-.55.93-1.32,2.2-2.27,3.78l0,.09-.09,0a12.48,12.48,0,0,1-2.44-.94c-.84-.4-1.73-.84-2.66-1.31-1.87-1-3.92-2.06-6.12-3.26-4.41-2.42-9.41-5.26-14.72-8.31-8.45-4.88-16.05-9.39-21.54-12.68l-6.47-3.93-1.75-1.1c-.39-.26-.59-.4-.59-.41a3.07,3.07,0,0,1,.65.32l1.79,1,6.56,3.79,21.61,12.54c5.3,3.06,10.3,5.92,14.68,8.37,2.19,1.22,4.23,2.34,6.07,3.31.93.49,1.81.94,2.63,1.35a13.17,13.17,0,0,0,2.34,1l-.14.07,2.38-3.71.65-1C117.67,366.94,117.75,366.83,117.77,366.84Z" style="fill:#455a64"></path><path d="M159.22,456.11a.64.64,0,0,1,0-.24c0-.19,0-.43,0-.71,0-.67,0-1.57,0-2.72,0-2.4.09-5.8.16-10,.18-8.47.44-20.1.72-32.95S161,385,160,376.59a62.07,62.07,0,0,0-1.75-9.8c-.3-1.14-.57-2-.76-2.6-.08-.27-.15-.5-.2-.68a.82.82,0,0,1-.05-.23,1.28,1.28,0,0,1,.1.21l.25.67c.23.58.52,1.44.85,2.58a57.35,57.35,0,0,1,1.93,9.81c1.06,8.42.46,20.11.2,33s-.65,24.47-.88,32.94c-.13,4.18-.24,7.58-.32,10,0,1.14-.09,2.05-.12,2.71l0,.71A.75.75,0,0,1,159.22,456.11Z" style="fill:#455a64"></path><path d="M182.2,456.11c0,.14-6.49.26-14.49.26s-14.5-.12-14.5-.26,6.49-.26,14.5-.26S182.2,456,182.2,456.11Z" style="fill:#455a64"></path><path d="M205.62,213.05s-.1-1.39-.05-5.39l-3.19-9s1.2-1.65,2.92,2.41a2.16,2.16,0,0,0,4.08-1.18,3.47,3.47,0,0,0-6-2.08s-1.41,0-1.42-1.15,3.47-3.35,6-2.22a8.09,8.09,0,0,1,2.72,2.06s.62-9,1.35-9,1.67.7.91,10.54c0,0,1.33-7.67,1.61-8.63s1.7-1.46,1.54,1l-.55,7.92s1.53-4.9,1.68-5.28c.39-1,1.42-.78,1.33.64-.07,1.07-.33,5.64-.33,5.64L217,213.4h.08" style="fill:#ffbe9d"></path><path d="M215.16,201.44c.05.07-.37.35-.82,1a4.14,4.14,0,0,0-.75,2.84l.16,1.24-.64-1.08-.09-.15a7.28,7.28,0,0,0-2-2.47c-.66-.46-1.19-.52-1.18-.6s.58-.14,1.37.29a6.25,6.25,0,0,1,2.24,2.52l.09.15-.48.16a4.09,4.09,0,0,1,1-3.13C214.63,201.57,215.14,201.39,215.16,201.44Z" style="fill:#eb996e"></path><path d="M143.19,221.48s-7.76.82-13.65,1.38c-6.88.66-14,7.7-10.51,21.68,1.83,7.41,6.44,12,5.4,21l-4.35,29.05,49.18,4.29-.91-43.27L170,238.28c1.73-21.72-14.93-18-14.93-18l-11.9,1.22" style="fill:#6C63FD"></path><path d="M120.4,249.67c5.58,35.69-12.79,68-33.37,93.6a106.18,106.18,0,0,0,41.05,26.9c3.24,1.19,6.73,2.22,10.11,1.52,4.5-.93,7.79-4.68,11.77-7,13.64-7.9,32.63,2.1,46.13-6-18.13-39.82-24.62-79.09-26.68-122.8" style="fill:#6C63FD"></path><g style="opacity:0.5"><path d="M196.09,358.68c-13.5,8.13-32.49-1.87-46.13,6-4,2.3-7.27,6.05-11.77,7-3.38.7-6.87-.33-10.11-1.52A106.18,106.18,0,0,1,87,343.27l3.32-4.22S128,368,136.47,364.52s12.8-7.09,17.91-8.36,38-1.34,39.49-2.49Z"></path></g><g style="opacity:0.5"><path d="M126,223.8s21.41,23,21.46,22.84,13.52-26.27,13.52-26.27C160.4,219.2,128.5,221.43,126,223.8Z"></path></g><path d="M128.12,223.09l18.69,17.5L158.13,220A186,186,0,0,0,128.12,223.09Z" style="fill:#fff"></path><path d="M163.77,221,197,236.73,201.13,209l21.18-1.41-7.15,33.81c0,8.8-6.28,13.62-12.93,15.45h0c-4,1.09-10.9-1.42-14.58-3.3-7.31-3.76-22.54-10.54-23-10.7C161,241.52,142.32,213.75,163.77,221Z" style="fill:#6C63FD"></path><g style="opacity:0.5"><polygon points="220.65 215.46 200.06 216.13 201.13 209.04 222.31 207.63 220.65 215.46"></polygon></g><path d="M140.47,326.59c.15,0-1,9.47-2.48,21.11s-2.86,21.06-3,21,1-9.47,2.48-21.11S140.33,326.58,140.47,326.59Z" style="fill:#263238"></path><path d="M144.94,341.34a17.48,17.48,0,0,1-.3,3c-.26,1.83-.69,4.36-1.28,7.13s-1.2,5.26-1.71,7.05a16.86,16.86,0,0,1-.93,2.85,17.35,17.35,0,0,1,.58-2.94c.41-1.81,1-4.3,1.56-7.06s1.06-5.28,1.42-7.09A17.11,17.11,0,0,1,144.94,341.34Z" style="fill:#263238"></path><path d="M165.2,311.13a10.45,10.45,0,0,1-.39,1.66c-.31,1.14-.71,2.66-1.2,4.49-1,3.8-2.22,9.08-3.29,15s-1.73,11.28-2.12,15.18c-.19,1.89-.34,3.45-.45,4.63a10,10,0,0,1-.21,1.7,11.78,11.78,0,0,1,0-1.71c0-1.1.13-2.69.28-4.65.3-3.92.92-9.33,2-15.24s2.37-11.19,3.45-15c.54-1.89,1-3.42,1.35-4.46A11.82,11.82,0,0,1,165.2,311.13Z" style="fill:#263238"></path><g style="opacity:0.2"><path d="M144.14,326.39l-1.31,2.34,21.28,3.71s11.37-22.73,1.81-61.94Z"></path></g><g style="opacity:0.2"><path d="M100.82,324.24,120,333.4s9.73-15.17,15-31.31c9.15-28.25.5-78.29.5-78.29C129.28,274.55,114.45,302.75,100.82,324.24Z"></path></g><path d="M119.64,227.47,94.26,254,80.48,229.64l-20.29,6.24,18.75,29c3.11,8.24,10.73,10.49,17.59,9.82h0c4.12-.4,9.68-5.21,12.44-8.29,5.49-6.12,17.3-17.89,17.63-18.19C129.53,245.66,137.1,213,119.64,227.47Z" style="fill:#6C63FD"></path><polygon points="64.53 242.61 84.01 235.88 80.48 229.64 60.19 235.88 64.53 242.61" style="opacity:0.5"></polygon><path d="M147.44,179.26a11.28,11.28,0,0,1,2.66,5.92c.19,1.43.18,3.06,1.24,4,1.28,1.18,3.52.77,4.79,2,1.83,1.74.19,5.21,1.79,7.15,1.06,1.29,3,1.27,4.52,2a5.28,5.28,0,0,1,2.67,5.88c-.48,2-2,3.54-3.45,5l-3.32,3.3a3.78,3.78,0,0,1-2.09,1.29c-1.49.15-2.58-1.44-4-1.77-1.8-.41-3.39,1.16-5.15,1.71a4.83,4.83,0,0,1-6.18-3.77" style="fill:#263238"></path><path d="M153,221.25c-1.52-4.39-3-9-3-9s5.32-2.91,3.91-10.69c-1.34-7.41-8.17-23.23-8.17-23.23h0A22.43,22.43,0,0,0,124,191.93h0L137,227.36a8.1,8.1,0,0,0,10.63,4.46h0C152,230.16,154.44,225.43,153,221.25Z" style="fill:#ffbe9d"></path><path d="M148.31,191.33a1,1,0,0,1-.58,1.27,1,1,0,0,1-1.27-.51,1,1,0,0,1,.58-1.27A1,1,0,0,1,148.31,191.33Z" style="fill:#263238"></path><path d="M149.2,190.11c-.07.16-1-.12-2,.24s-1.58,1.13-1.74,1,0-.3.21-.65a2.78,2.78,0,0,1,1.34-1,2.63,2.63,0,0,1,1.64,0C149.06,189.85,149.24,190,149.2,190.11Z" style="fill:#263238"></path><path d="M137.77,195.24a1,1,0,0,1-.58,1.27,1,1,0,0,1-1.27-.51,1,1,0,0,1,.58-1.27A1,1,0,0,1,137.77,195.24Z" style="fill:#263238"></path><path d="M138.72,194.19c-.07.16-1-.12-2,.24s-1.58,1.13-1.73,1,0-.3.21-.65a2.72,2.72,0,0,1,3-1C138.58,193.92,138.76,194.11,138.72,194.19Z" style="fill:#263238"></path><path d="M145.05,200.43a7.51,7.51,0,0,1,1.55-.87c.25-.12.47-.26.46-.45a1.48,1.48,0,0,0-.45-.71l-1.46-1.71a36,36,0,0,1-3.53-4.56,36.18,36.18,0,0,1,3.89,4.27l1.43,1.73a1.6,1.6,0,0,1,.5,1,.72.72,0,0,1-.3.53,2.14,2.14,0,0,1-.42.22A6.91,6.91,0,0,1,145.05,200.43Z" style="fill:#263238"></path><path d="M150,212.22a19.91,19.91,0,0,1-10.79.82s4.17,4.22,11.3,1Z" style="fill:#eb996e"></path><path d="M145.48,203a2,2,0,0,0-1.88-.1,1.75,1.75,0,0,0-.94,1,1.12,1.12,0,0,0,.34,1.24,1.3,1.3,0,0,0,1.45-.13,4.1,4.1,0,0,0,1-1.23,1,1,0,0,0,.18-.4.36.36,0,0,0-.13-.38" style="fill:#eb996e"></path><path d="M142.3,202.18c.17-.06.55,1,1.77,1.49s2.35-.08,2.41.07-.18.31-.67.5a3,3,0,0,1-2,0A2.56,2.56,0,0,1,142.4,203C142.2,202.52,142.23,202.2,142.3,202.18Z" style="fill:#263238"></path><path d="M129.59,199.11a4.55,4.55,0,0,0-2.32,1,3.25,3.25,0,0,0-1.19,2.18,3.37,3.37,0,0,0,.81,2.36,5.63,5.63,0,0,0,2,1.51,3.9,3.9,0,0,0,1.76.45,1.85,1.85,0,0,0,1.55-.83" style="fill:#ffbe9d"></path><path d="M130.82,204c.1,0-.08.6-.86.66a1.66,1.66,0,0,1-1.17-.47,3.55,3.55,0,0,1-.84-1.17,2.14,2.14,0,0,1-.16-1.5,1.5,1.5,0,0,1,.82-1c.74-.27,1.15.16,1.07.21s-.42-.09-.86.2a1.4,1.4,0,0,0-.29,1.81c.37.78.94,1.41,1.44,1.44S130.75,204,130.82,204Z" style="fill:#eb996e"></path><path d="M143.27,176.91a5.68,5.68,0,0,1-.3,6.79c-1.6,1.86-4.19,2.43-6.45,3.41s-4.53,3-4.11,5.45c.25,1.47,1.48,2.75,1.28,4.23-.22,1.72-2.26,2.71-2.66,4.41-.63,2.72,3.21,4.61,3.41,7.4.11,1.66-1.1,3.17-1.05,4.83.08,2.36,2.69,4.55,1.67,6.68-.79,1.63-3.09,1.71-4.84,1.26s-3.7-1.14-5.29-.27a15.08,15.08,0,0,0-2.37,2.23,5,5,0,0,1-8.35-4.08,13.88,13.88,0,0,1,1.33-4.15,5.58,5.58,0,0,0,.29-4.25,9.52,9.52,0,0,0-2.17-2.54,3.29,3.29,0,0,1-1.15-3c.52-1.89,3.41-2.11,4.24-3.89,1.14-2.44-2.55-4.9-2-7.55.59-3,5.76-3.14,6.36-6.13.22-1.1-.3-2.2-.33-3.31-.07-2.54,2.36-4.49,4.79-5.24s5.06-.76,7.42-1.72c1.29-.52,2.45-1.31,3.71-1.91a6.31,6.31,0,0,1,4-.7,3.07,3.07,0,0,1,2.49,2.93" style="fill:#263238"></path><path d="M142.83,182.41a9.51,9.51,0,0,0,7.51,3.73,23.18,23.18,0,0,0-1.4-5.58,9.07,9.07,0,0,0-3.6-4.38,5.72,5.72,0,0,0-5.52-.27" style="fill:#263238"></path><path d="M120.42,223.56a1.31,1.31,0,0,1-.49-.36,1.8,1.8,0,0,1-.26-1.65,2.4,2.4,0,0,1,.69-1,7.54,7.54,0,0,1,1.22-.89,8.07,8.07,0,0,0,1.42-1,2.48,2.48,0,0,0,.85-1.78,3.15,3.15,0,0,0-.9-2c-.49-.58-1.08-1.1-1.54-1.75a5.43,5.43,0,0,1-.63-4.85,5,5,0,0,1,1.49-2.25c.72-.61,1.6-1.05,2.4-1.66a4.13,4.13,0,0,0,1-1.12,2.59,2.59,0,0,0,.34-1.52,10.89,10.89,0,0,0-1-3,5.73,5.73,0,0,1-.32-3,7.67,7.67,0,0,1,1-2.78,11.47,11.47,0,0,1,4.07-3.84,41,41,0,0,1,4.63-2.27,32.69,32.69,0,0,0,4-2.05,12.93,12.93,0,0,0,2.87-2.36,9.17,9.17,0,0,0,1.53-2.36,6.73,6.73,0,0,0,.5-1.7,4.67,4.67,0,0,0,.06-.62s0,.21-.1.61a6.78,6.78,0,0,1-.54,1.67,10.84,10.84,0,0,1-4.41,4.63,32.54,32.54,0,0,1-4,2,40.23,40.23,0,0,0-4.65,2.26,11.72,11.72,0,0,0-4.16,3.9,7.93,7.93,0,0,0-1,2.86,6,6,0,0,0,.33,3.12,10.89,10.89,0,0,1,1,2.89,2.42,2.42,0,0,1-.32,1.4,3.54,3.54,0,0,1-1,1.06c-.77.6-1.65,1-2.39,1.66a5.32,5.32,0,0,0-1.56,2.35,5.62,5.62,0,0,0,.68,5c.48.67,1.08,1.18,1.56,1.75a3,3,0,0,1,.87,1.86,2.26,2.26,0,0,1-.79,1.67,7.74,7.74,0,0,1-1.39,1,7,7,0,0,0-1.22.92,2.45,2.45,0,0,0-.7,1.08,1.84,1.84,0,0,0,.31,1.71A1,1,0,0,0,120.42,223.56Z" style="fill:#455a64"></path><path d="M116.53,199.77h.39a10.81,10.81,0,0,0,1.12-.11,5.8,5.8,0,0,0,1.71-.48,3.59,3.59,0,0,0,1.67-1.65,7,7,0,0,0,.63-2.79,28.17,28.17,0,0,1,.17-3.24,7.28,7.28,0,0,1,1.41-3.22,11.38,11.38,0,0,1,2.81-2.57,29.87,29.87,0,0,1,6.84-2.88c1.09-.37,2.12-.73,3.06-1.14a17.57,17.57,0,0,0,2.53-1.33,10.36,10.36,0,0,0,3-2.79,5.68,5.68,0,0,0,.73-1.32l-.05.08-.14.26a9.93,9.93,0,0,1-.61.93,10.69,10.69,0,0,1-3,2.71,16.78,16.78,0,0,1-2.51,1.29c-.94.39-2,.75-3.06,1.11a29.89,29.89,0,0,0-6.89,2.9,11.28,11.28,0,0,0-2.87,2.62,7.58,7.58,0,0,0-1.44,3.32,31.35,31.35,0,0,0-.15,3.27,6.63,6.63,0,0,1-.58,2.72,3.47,3.47,0,0,1-1.58,1.61,6.34,6.34,0,0,1-1.67.51c-.48.08-.86.12-1.11.15A3.33,3.33,0,0,0,116.53,199.77Z" style="fill:#455a64"></path><path d="M161.24,210.27l.13-.09a2.08,2.08,0,0,0,.35-.31,4.09,4.09,0,0,0,.93-1.43,4.62,4.62,0,0,0,.25-2.51,4.36,4.36,0,0,0-1.64-2.61,4.5,4.5,0,0,0-2.94-.95,15.34,15.34,0,0,1-2.48.24,1.91,1.91,0,0,1-1.38-.78,1.74,1.74,0,0,1-.2-.57s0,.05,0,.16a1.12,1.12,0,0,0,.14.45,1.94,1.94,0,0,0,1.43.9,13.6,13.6,0,0,0,2.51-.2,4.43,4.43,0,0,1,2.79.92A4.22,4.22,0,0,1,162.7,206a4.53,4.53,0,0,1-.2,2.42,4.32,4.32,0,0,1-.84,1.43A5.57,5.57,0,0,0,161.24,210.27Z" style="fill:#455a64"></path><path d="M107.67,181.73l-.66-1.45a1.54,1.54,0,0,1,.81-2.05c7.4-3.11,40.59-17,41.5-17,1.09,0,1.58,1.69,1.58,1.69a5.61,5.61,0,0,1-.18,1.86Z" style="fill:#6C63FD"></path><path d="M148.82,162.51l-40.48,17a1.5,1.5,0,0,0-.13,2.7L117,187a1.48,1.48,0,0,0,1.25.08l30.52-12a1.51,1.51,0,0,0,.94-1.22l1.15-9.71A1.49,1.49,0,0,0,148.82,162.51Z" style="fill:#6C63FD"></path><g style="opacity:0.5"><path d="M148.82,162.51l-40.48,17a1.5,1.5,0,0,0-.13,2.7L117,187a1.48,1.48,0,0,0,1.25.08l30.52-12a1.51,1.51,0,0,0,.94-1.22l1.15-9.71A1.49,1.49,0,0,0,148.82,162.51Z"></path></g><path d="M123.16,189.6c0-.13-.63-1.49-1.34-3.15a8.85,8.85,0,0,1,3.94-11.27A46.75,46.75,0,0,1,136.24,171a8.78,8.78,0,0,1,9.93,4.34l2.12,3.9Z" style="fill:#6C63FD"></path><path d="M106.47,190s.35-.06.92-.26a5,5,0,0,0,2.07-1.47,7.44,7.44,0,0,0,1.62-3.41,39.34,39.34,0,0,0,.54-4.73,11.76,11.76,0,0,1,1.27-4.7,5.17,5.17,0,0,1,3-2.55,3.82,3.82,0,0,1,2.68.08,1.75,1.75,0,0,1,.8.57s-.3-.19-.87-.38a3.92,3.92,0,0,0-2.5.08,4.9,4.9,0,0,0-2.74,2.43,11.85,11.85,0,0,0-1.17,4.52,36.25,36.25,0,0,1-.59,4.79,7.48,7.48,0,0,1-1.82,3.55,4.82,4.82,0,0,1-2.28,1.41A1.87,1.87,0,0,1,106.47,190Z" style="fill:#263238"></path><path d="M106.78,189.87c-2-.83-4.3-.23-6.3-1A2.67,2.67,0,0,0,102,190a1,1,0,0,1-.81.18c-.29,0-.64,0-.77.26a.71.71,0,0,0-.06.41,6,6,0,0,0,.56,2.16c1.29-.45,2.55-1,3.79-1.53.77-.35,2.12-.62,2.06-1.53" style="fill:#263238"></path><path d="M153.45,220.15s4.92-2,7.59.27c1.38,1.16,7.82,73.26,6.64,87.75s-4.27,21.59-4.27,21.59l-21.16-3.7s6.73-21.9,8.55-37.62S153.45,220.15,153.45,220.15Z" style="fill:#455a64"></path><path d="M165.39,322.79a3.07,3.07,0,0,1-.81.47,19.86,19.86,0,0,1-2.37,1,9.53,9.53,0,0,1-3.81.57,11.27,11.27,0,0,1-4.46-1.54,32.63,32.63,0,0,0-4.1-2.1,6.7,6.7,0,0,0-3.6-.43,4.55,4.55,0,0,0-2.23,1c-.45.38-.62.67-.66.65s.09-.34.52-.8a4.49,4.49,0,0,1,2.29-1.23,6.91,6.91,0,0,1,3.85.34,29.62,29.62,0,0,1,4.18,2.09,11.32,11.32,0,0,0,4.25,1.52,9.69,9.69,0,0,0,3.66-.44C164.14,323.28,165.36,322.7,165.39,322.79Z" style="fill:#263238"></path><path d="M165.92,318.28a3,3,0,0,1-.77.53,22.49,22.49,0,0,1-2.27,1.2,12.25,12.25,0,0,1-3.68,1.07,7.08,7.08,0,0,1-4.58-1c-1.45-.86-2.6-1.94-3.79-2.66a5.92,5.92,0,0,0-3.42-1.09,3.74,3.74,0,0,0-2.26.84c-.44.38-.58.69-.63.67A1.54,1.54,0,0,1,145,317a3.7,3.7,0,0,1,2.37-1.06,6.08,6.08,0,0,1,3.7,1.05c1.25.73,2.43,1.8,3.8,2.63a6.83,6.83,0,0,0,4.28,1,12.71,12.71,0,0,0,3.58-.93C164.71,318.85,165.88,318.19,165.92,318.28Z" style="fill:#263238"></path><path d="M135.12,219.52s-9.05,2.35-9,6-2.71,46.87-13.64,71.53C105.28,313.4,94.14,319,94.14,319l25.43,11.16s13.71-17.33,16.19-48.78A388.08,388.08,0,0,0,135.12,219.52Z" style="fill:#455a64"></path><path d="M123.59,323s0-.39-.09-1.06a6,6,0,0,0-1-2.63,5.78,5.78,0,0,0-3.35-2.33,14.79,14.79,0,0,0-5.16-.24,20.77,20.77,0,0,1-5.34,0,7,7,0,0,1-2.25-.76,6,6,0,0,1-1.6-1.31,4.27,4.27,0,0,1-1.14-2.72,2.32,2.32,0,0,1,.1-.8c0-.18.08-.27.1-.26s-.06.38,0,1.05a4.44,4.44,0,0,0,1.21,2.49,6.13,6.13,0,0,0,3.66,1.84,21.88,21.88,0,0,0,5.22-.07,14.72,14.72,0,0,1,5.34.29,6,6,0,0,1,3.52,2.6,5.72,5.72,0,0,1,.88,2.82A2.26,2.26,0,0,1,123.59,323Z" style="fill:#263238"></path><path d="M125.75,319.56s0-.38-.06-1a5.89,5.89,0,0,0-1-2.6,5.69,5.69,0,0,0-3.26-2.33,14.91,14.91,0,0,0-5.07-.33,21.25,21.25,0,0,1-5.25-.09,7.27,7.27,0,0,1-2.2-.78,6,6,0,0,1-1.56-1.31,4.17,4.17,0,0,1-1.09-2.69,2.79,2.79,0,0,1,.11-.79c.06-.17.1-.26.11-.25s-.06.38,0,1a4.25,4.25,0,0,0,1.16,2.46,6,6,0,0,0,1.5,1.17,6.87,6.87,0,0,0,2.08.68,21.8,21.8,0,0,0,5.13.05,14.77,14.77,0,0,1,5.24.39,6,6,0,0,1,3.43,2.59,5.51,5.51,0,0,1,.84,2.79A2.37,2.37,0,0,1,125.75,319.56Z" style="fill:#263238"></path><path d="M67.75,235.41l-2.68-2.95c-2.2-2.9-3.54-4.42-3.52-5.82,0-1.87,2.22-1.37,2.22-1.37s-1.12-2.53.22-3.44a1.6,1.6,0,0,1,1.85.22s-.91-2.31-.51-3.31c.54-1.35,2.16-.62,2.16-.62-.71-3.64.89-4.73,1.53-4.33s1.47,3,1.47,3c1,1.92,3.56,7.26,4.43,3.59s2.91-6.15,3.93-6.44a1.18,1.18,0,0,1,1.08,2,13.73,13.73,0,0,0-1.56,3.46,9.07,9.07,0,0,0-.47,3c0,1.19.09,2.2.17,3.06l-.1,4.93Z" style="fill:#ffbe9d"></path><path d="M73.79,213.32a4.58,4.58,0,0,1-7.21,2.84,7.36,7.36,0,0,1-2.42-4,40.48,40.48,0,0,0-1.3-4.58,10.9,10.9,0,0,0-8.67-6.22,15,15,0,0,0-10.51,3l3.25-3.76-5.45-1.86a15.3,15.3,0,0,1,24.24,5.4c.51,1.2.87,2.46,1.49,3.6A5.12,5.12,0,0,0,70,210.32a2.77,2.77,0,0,0,3.32-1.3" style="fill:#6C63FD"></path><path d="M76.88,191.64,58.93,245.48c.82,3.68,3.72,4.7,8.35,3.53l18.09-55.25C83.65,190.26,80.68,189.91,76.88,191.64Z" style="fill:#fafafa"></path><path d="M76.88,191.64l.14-.08.45-.21a10.65,10.65,0,0,1,1.83-.61,5.84,5.84,0,0,1,3.13,0,5.49,5.49,0,0,1,3.06,2.92l0,.05,0,.05c-3.55,11.09-10.19,31.53-17.82,54.84l-.15.45,0,.14-.14,0a10.33,10.33,0,0,1-5.35.18,4.54,4.54,0,0,1-2.24-1.5,6,6,0,0,1-1.07-2.4v-.07l0-.07L71.59,207c1.63-4.78,2.94-8.62,3.85-11.31.45-1.29.8-2.3,1.06-3,.11-.32.2-.58.28-.78a1.57,1.57,0,0,1,.1-.25.87.87,0,0,1-.07.28l-.24.81c-.24.73-.57,1.76-1,3.08L71.87,207.2c-3.2,9.66-7.65,23.1-12.69,38.36v-.13a5.5,5.5,0,0,0,1,2.19,4,4,0,0,0,2,1.33,10,10,0,0,0,5.07-.19l-.18.17.14-.45c7.64-23.31,14.37-43.72,18.07-54.76v.1A5.28,5.28,0,0,0,82.37,191a5.89,5.89,0,0,0-3-.1A21.36,21.36,0,0,0,76.88,191.64Z" style="fill:#263238"></path><path d="M67.09,249.13c-.09,0-.07-.65-.44-1.58a4.79,4.79,0,0,0-6.35-2.75c-.94.36-1.41.82-1.47.75s.35-.6,1.32-1.09a4.85,4.85,0,0,1,6.84,3A2.53,2.53,0,0,1,67.09,249.13Z" style="fill:#263238"></path><path d="M66.54,247.45a2.89,2.89,0,0,1-1.66.89,4.84,4.84,0,0,1-2.09,0,4.61,4.61,0,0,1-1.18-.41,2.34,2.34,0,0,1-1-1,1.36,1.36,0,0,1,.16-1.48,1.39,1.39,0,0,1,1.32-.38,1.6,1.6,0,0,1,1.37,1.63.92.92,0,0,1-.51.73.72.72,0,0,1-.68,0c-.32-.22-.26-.49-.24-.48s.08.19.34.3a.49.49,0,0,0,.44,0,.68.68,0,0,0,.29-.52A1.24,1.24,0,0,0,62,245.59a.93.93,0,0,0-.86.25.86.86,0,0,0-.07.92,2.81,2.81,0,0,0,1.84,1.14,4.79,4.79,0,0,0,1.9.08C65.9,247.79,66.49,247.37,66.54,247.45Z" style="fill:#263238"></path><path d="M83.93,191.78a2.85,2.85,0,0,1-.16.55c-.15.41-.33.92-.55,1.55-.51,1.4-1.22,3.32-2.08,5.66l-6.79,18.71c-2.64,7.31-5.09,13.91-6.93,18.66-.93,2.37-1.69,4.29-2.24,5.6-.25.62-.47,1.12-.63,1.52a2.43,2.43,0,0,1-.26.51,2.15,2.15,0,0,1,.16-.55c.14-.41.32-.92.55-1.55.51-1.4,1.21-3.32,2.07-5.66l6.79-18.71c2.65-7.31,5.09-13.91,6.94-18.66.92-2.37,1.68-4.29,2.23-5.6.26-.62.47-1.12.64-1.51A1.93,1.93,0,0,1,83.93,191.78Z" style="fill:#263238"></path><path d="M67.68,219.81s5.61-2.41,8,2.83L77.48,217s-2.53-4.85-8.14-2.27Z" style="fill:#6C63FD"></path></g></svg>